<svg width="85" height="20" viewBox="0 0 85 20" fill="none" xmlns="http://www.w3.org/2000/svg">
<g clip-path="url(#clip0_19628_2390)">
<path d="M19.1523 7.25427H15.0031L12.6756 1.92486C12.5462 1.62833 12.2008 1.49282 11.9042 1.62239C11.6076 1.75189 11.4722 2.09732 11.6017 2.39388L13.7244 7.25431H6.27564L8.3983 2.39388C8.52779 2.09732 8.3924 1.75193 8.09584 1.62239C7.79932 1.49282 7.45385 1.62825 7.32439 1.92486L4.99689 7.25427H0.847715C0.304942 7.25427 -0.0978707 7.74564 0.0208793 8.26286L2.20584 17.7797C2.2926 18.1576 2.63611 18.4261 3.03268 18.4261H16.9674C17.3639 18.4261 17.7074 18.1576 17.7942 17.7797L19.9792 8.26286C20.0979 7.74568 19.6951 7.25427 19.1523 7.25427ZM5.10713 9.0513C5.02885 9.0513 4.94928 9.03552 4.87291 9.00216C4.57635 8.87267 4.44092 8.52728 4.57045 8.23068L5.01061 7.22278H6.28936L5.64436 8.69966C5.54822 8.91993 5.33299 9.0513 5.10713 9.0513ZM7.07033 15.3011C7.07033 15.6247 6.80799 15.8871 6.48439 15.8871C6.1608 15.8871 5.89846 15.6247 5.89846 15.3011V11.0043C5.89846 10.6807 6.1608 10.4183 6.48439 10.4183C6.80799 10.4183 7.07033 10.6807 7.07033 11.0043V15.3011ZM10.586 15.3011C10.586 15.6247 10.3236 15.8871 10 15.8871C9.67643 15.8871 9.41408 15.6247 9.41408 15.3011V11.0043C9.41408 10.6807 9.67643 10.4183 10 10.4183C10.3236 10.4183 10.586 10.6807 10.586 11.0043V15.3011ZM14.1016 15.3011C14.1016 15.6247 13.8392 15.8871 13.5156 15.8871C13.1921 15.8871 12.9297 15.6247 12.9297 15.3011V11.0043C12.9297 10.6807 13.1921 10.4183 13.5156 10.4183C13.8392 10.4183 14.1016 10.6807 14.1016 11.0043V15.3011ZM15.1271 9.00216C15.0508 9.03552 14.9712 9.0513 14.8929 9.0513C14.6671 9.0513 14.4518 8.91997 14.3556 8.6997L13.7106 7.22282H14.9894L15.4296 8.23071C15.5591 8.52728 15.4237 8.87267 15.1271 9.00216Z" fill="#6F73EE"/>
</g>
<path d="M31.092 5.2V15H32.786V5.2H31.092ZM36.426 5.2L32.296 9.834L36.594 15H38.638L34.284 9.792L38.428 5.2H36.426ZM38.7201 11.78C38.7201 12.4333 38.8695 13.0167 39.1681 13.53C39.4761 14.034 39.8915 14.4307 40.4141 14.72C40.9461 15 41.5388 15.14 42.1921 15.14C42.8548 15.14 43.4475 15 43.9701 14.72C44.4928 14.4307 44.9035 14.034 45.2021 13.53C45.5101 13.0167 45.6641 12.4333 45.6641 11.78C45.6641 11.1173 45.5101 10.534 45.2021 10.03C44.9035 9.526 44.4928 9.134 43.9701 8.854C43.4475 8.56467 42.8548 8.42 42.1921 8.42C41.5388 8.42 40.9461 8.56467 40.4141 8.854C39.8915 9.134 39.4761 9.526 39.1681 10.03C38.8695 10.534 38.7201 11.1173 38.7201 11.78ZM40.2741 11.78C40.2741 11.3787 40.3581 11.024 40.5261 10.716C40.6941 10.408 40.9228 10.17 41.2121 10.002C41.5015 9.834 41.8281 9.75 42.1921 9.75C42.5561 9.75 42.8828 9.834 43.1721 10.002C43.4615 10.17 43.6901 10.408 43.8581 10.716C44.0261 11.024 44.1101 11.3787 44.1101 11.78C44.1101 12.1813 44.0261 12.536 43.8581 12.844C43.6901 13.1427 43.4615 13.3807 43.1721 13.558C42.8828 13.726 42.5561 13.81 42.1921 13.81C41.8281 13.81 41.5015 13.726 41.2121 13.558C40.9228 13.3807 40.6941 13.1427 40.5261 12.844C40.3581 12.536 40.2741 12.1813 40.2741 11.78ZM48.5825 18.08V8.56H47.0565V18.08H48.5825ZM53.9165 11.78C53.9165 11.052 53.7718 10.4407 53.4825 9.946C53.1932 9.442 52.8105 9.05467 52.3345 8.784C51.8585 8.51333 51.3405 8.378 50.7805 8.378C50.2392 8.378 49.7632 8.518 49.3525 8.798C48.9512 9.078 48.6385 9.47 48.4145 9.974C48.1905 10.478 48.0785 11.08 48.0785 11.78C48.0785 12.4707 48.1905 13.0727 48.4145 13.586C48.6385 14.09 48.9512 14.482 49.3525 14.762C49.7632 15.0327 50.2392 15.168 50.7805 15.168C51.3405 15.168 51.8585 15.0373 52.3345 14.776C52.8105 14.5053 53.1932 14.118 53.4825 13.614C53.7718 13.1007 53.9165 12.4893 53.9165 11.78ZM52.3485 11.78C52.3485 12.2093 52.2598 12.5733 52.0825 12.872C51.9052 13.1707 51.6718 13.3993 51.3825 13.558C51.0932 13.7167 50.7712 13.796 50.4165 13.796C50.1178 13.796 49.8285 13.7213 49.5485 13.572C49.2685 13.4133 49.0352 13.1847 48.8485 12.886C48.6712 12.5873 48.5825 12.2187 48.5825 11.78C48.5825 11.3413 48.6712 10.9727 48.8485 10.674C49.0352 10.3753 49.2685 10.1513 49.5485 10.002C49.8285 9.84333 50.1178 9.764 50.4165 9.764C50.7712 9.764 51.0932 9.84333 51.3825 10.002C51.6718 10.1513 51.9052 10.38 52.0825 10.688C52.2598 10.9867 52.3485 11.3507 52.3485 11.78ZM57.9186 11.78C58.74 11.7987 59.3653 11.6587 59.7946 11.36C60.224 11.052 60.4386 10.6647 60.4386 10.198C60.4386 9.87133 60.336 9.57267 60.1306 9.302C59.9253 9.03133 59.6406 8.81667 59.2766 8.658C58.9126 8.49933 58.502 8.42 58.0446 8.42C57.5593 8.42 57.1253 8.51333 56.7426 8.7C56.3693 8.88667 56.0753 9.13867 55.8606 9.456C55.6553 9.77333 55.5526 10.1327 55.5526 10.534H56.9946C56.9946 10.3847 57.032 10.2447 57.1066 10.114C57.1906 9.974 57.312 9.862 57.4706 9.778C57.6293 9.68467 57.8253 9.638 58.0586 9.638C58.3386 9.638 58.5626 9.70333 58.7306 9.834C58.8986 9.96467 58.9826 10.1373 58.9826 10.352C58.9826 10.5667 58.8986 10.7487 58.7306 10.898C58.5626 11.038 58.292 11.108 57.9186 11.108V11.78ZM58.0166 15.14C58.5206 15.14 58.978 15.0607 59.3886 14.902C59.7993 14.734 60.1213 14.5007 60.3546 14.202C60.5973 13.894 60.7186 13.53 60.7186 13.11C60.7186 12.5127 60.4666 12.0693 59.9626 11.78C59.468 11.4813 58.7866 11.3413 57.9186 11.36V12.102C58.208 12.102 58.4506 12.1393 58.6466 12.214C58.852 12.2887 59.006 12.396 59.1086 12.536C59.2113 12.6667 59.2626 12.8347 59.2626 13.04C59.2626 13.2173 59.2113 13.376 59.1086 13.516C59.0153 13.656 58.8753 13.7633 58.6886 13.838C58.502 13.9127 58.278 13.95 58.0166 13.95C57.6153 13.95 57.312 13.8473 57.1066 13.642C56.9106 13.4367 56.78 13.1893 56.7146 12.9H55.2306C55.3053 13.5627 55.5806 14.104 56.0566 14.524C56.542 14.9347 57.1953 15.14 58.0166 15.14ZM68.1536 9.96L68.2236 8.07L62.4416 13.6L62.3716 15.49L68.1536 9.96ZM63.8556 8.56H62.3716V15.49L63.8556 13.768V8.56ZM68.2236 8.07L66.7396 9.778V15H68.2236V8.07ZM70.876 12.228H75.804V10.968H70.876V12.228ZM74.992 8.56V15H76.476V8.56H74.992ZM70.218 8.56V15H71.702V8.56H70.218ZM79.3594 13.096C79.3594 12.872 79.4154 12.6807 79.5274 12.522C79.6394 12.354 79.8027 12.228 80.0174 12.144C80.2321 12.0507 80.4981 12.004 80.8154 12.004C81.2074 12.004 81.5527 12.0553 81.8514 12.158C82.1501 12.2513 82.4441 12.4053 82.7334 12.62V11.822C82.6587 11.7287 82.5234 11.6213 82.3274 11.5C82.1314 11.3787 81.8841 11.2713 81.5854 11.178C81.2961 11.0847 80.9647 11.038 80.5914 11.038C80.0314 11.038 79.5414 11.122 79.1214 11.29C78.7107 11.458 78.3934 11.7007 78.1694 12.018C77.9454 12.3353 77.8334 12.7133 77.8334 13.152C77.8334 13.5907 77.9314 13.9593 78.1274 14.258C78.3327 14.5473 78.6034 14.7667 78.9394 14.916C79.2847 15.0653 79.6674 15.14 80.0874 15.14C80.5354 15.14 80.9414 15.0653 81.3054 14.916C81.6694 14.7573 81.9587 14.5333 82.1734 14.244C82.3881 13.9453 82.4954 13.5907 82.4954 13.18L82.2714 12.438C82.2714 12.8207 82.1967 13.124 82.0474 13.348C81.8981 13.572 81.6927 13.7353 81.4314 13.838C81.1701 13.9407 80.8761 13.992 80.5494 13.992C80.3347 13.992 80.1341 13.9593 79.9474 13.894C79.7701 13.8193 79.6254 13.7167 79.5134 13.586C79.4107 13.4553 79.3594 13.292 79.3594 13.096ZM79.0374 10.254C79.1401 10.1887 79.2847 10.1093 79.4714 10.016C79.6674 9.91333 79.8914 9.82467 80.1434 9.75C80.4047 9.67533 80.6894 9.638 80.9974 9.638C81.3521 9.638 81.6507 9.722 81.8934 9.89C82.1454 10.0487 82.2714 10.2773 82.2714 10.576V15H83.7554V10.408C83.7554 9.97867 83.6387 9.61467 83.4054 9.316C83.1814 9.01733 82.8687 8.79333 82.4674 8.644C82.0661 8.48533 81.5994 8.406 81.0674 8.406C80.4887 8.406 79.9754 8.49 79.5274 8.658C79.0794 8.826 78.7107 8.99867 78.4214 9.176L79.0374 10.254Z" fill="#282739"/>
<defs>
<clipPath id="clip0_19628_2390">
<rect width="20" height="20" fill="white"/>
</clipPath>
</defs>
</svg>
