<svg width="114" height="40" viewBox="0 0 114 40" fill="none" xmlns="http://www.w3.org/2000/svg">
<rect x="0.75" y="0.75" width="112.5" height="38.5" rx="4.25" fill="#6F73EE" stroke="#6F73EE" stroke-width="1.5"/>
<path d="M42.248 13.8V25H44.184V13.8H42.248ZM48.344 13.8L43.624 19.096L48.536 25H50.872L45.896 19.048L50.632 13.8H48.344ZM53.0983 22.824C53.0983 22.568 53.1623 22.3493 53.2903 22.168C53.4183 21.976 53.6049 21.832 53.8503 21.736C54.0956 21.6293 54.3996 21.576 54.7623 21.576C55.2103 21.576 55.6049 21.6347 55.9463 21.752C56.2876 21.8587 56.6236 22.0347 56.9543 22.28V21.368C56.8689 21.2613 56.7143 21.1387 56.4903 21C56.2663 20.8613 55.9836 20.7387 55.6423 20.632C55.3116 20.5253 54.9329 20.472 54.5063 20.472C53.8663 20.472 53.3063 20.568 52.8263 20.76C52.3569 20.952 51.9943 21.2293 51.7383 21.592C51.4823 21.9547 51.3543 22.3867 51.3543 22.888C51.3543 23.3893 51.4663 23.8107 51.6903 24.152C51.9249 24.4827 52.2343 24.7333 52.6183 24.904C53.0129 25.0747 53.4503 25.16 53.9303 25.16C54.4423 25.16 54.9063 25.0747 55.3223 24.904C55.7383 24.7227 56.0689 24.4667 56.3143 24.136C56.5596 23.7947 56.6823 23.3893 56.6823 22.92L56.4263 22.072C56.4263 22.5093 56.3409 22.856 56.1703 23.112C55.9996 23.368 55.7649 23.5547 55.4663 23.672C55.1676 23.7893 54.8316 23.848 54.4583 23.848C54.2129 23.848 53.9836 23.8107 53.7703 23.736C53.5676 23.6507 53.4023 23.5333 53.2743 23.384C53.1569 23.2347 53.0983 23.048 53.0983 22.824ZM52.7303 19.576C52.8476 19.5013 53.0129 19.4107 53.2263 19.304C53.4503 19.1867 53.7063 19.0853 53.9943 19C54.2929 18.9147 54.6183 18.872 54.9703 18.872C55.3756 18.872 55.7169 18.968 55.9943 19.16C56.2823 19.3413 56.4263 19.6027 56.4263 19.944V25H58.1223V19.752C58.1223 19.2613 57.9889 18.8453 57.7223 18.504C57.4663 18.1627 57.1089 17.9067 56.6503 17.736C56.1916 17.5547 55.6583 17.464 55.0503 17.464C54.3889 17.464 53.8023 17.56 53.2903 17.752C52.7783 17.944 52.3569 18.1413 52.0263 18.344L52.7303 19.576ZM59.1269 17.64V19.16H63.7829V17.64H59.1269ZM60.6149 17.96V25H62.3109V17.96H60.6149ZM66.0514 22.824C66.0514 22.568 66.1154 22.3493 66.2434 22.168C66.3714 21.976 66.558 21.832 66.8034 21.736C67.0487 21.6293 67.3527 21.576 67.7154 21.576C68.1634 21.576 68.558 21.6347 68.8994 21.752C69.2407 21.8587 69.5767 22.0347 69.9074 22.28V21.368C69.822 21.2613 69.6674 21.1387 69.4434 21C69.2194 20.8613 68.9367 20.7387 68.5954 20.632C68.2647 20.5253 67.886 20.472 67.4594 20.472C66.8194 20.472 66.2594 20.568 65.7794 20.76C65.31 20.952 64.9474 21.2293 64.6914 21.592C64.4354 21.9547 64.3074 22.3867 64.3074 22.888C64.3074 23.3893 64.4194 23.8107 64.6434 24.152C64.878 24.4827 65.1874 24.7333 65.5714 24.904C65.966 25.0747 66.4034 25.16 66.8834 25.16C67.3954 25.16 67.8594 25.0747 68.2754 24.904C68.6914 24.7227 69.022 24.4667 69.2674 24.136C69.5127 23.7947 69.6354 23.3893 69.6354 22.92L69.3794 22.072C69.3794 22.5093 69.294 22.856 69.1234 23.112C68.9527 23.368 68.718 23.5547 68.4194 23.672C68.1207 23.7893 67.7847 23.848 67.4114 23.848C67.166 23.848 66.9367 23.8107 66.7234 23.736C66.5207 23.6507 66.3554 23.5333 66.2274 23.384C66.11 23.2347 66.0514 23.048 66.0514 22.824ZM65.6834 19.576C65.8007 19.5013 65.966 19.4107 66.1794 19.304C66.4034 19.1867 66.6594 19.0853 66.9474 19C67.246 18.9147 67.5714 18.872 67.9234 18.872C68.3287 18.872 68.67 18.968 68.9474 19.16C69.2354 19.3413 69.3794 19.6027 69.3794 19.944V25H71.0754V19.752C71.0754 19.2613 70.942 18.8453 70.6754 18.504C70.4194 18.1627 70.062 17.9067 69.6034 17.736C69.1447 17.5547 68.6114 17.464 68.0034 17.464C67.342 17.464 66.7554 17.56 66.2434 17.752C65.7314 17.944 65.31 18.1413 64.9794 18.344L65.6834 19.576ZM80.064 17.64H73.328V22.2C73.328 22.68 73.2107 23.0053 72.976 23.176C72.752 23.3467 72.48 23.432 72.16 23.432V25C72.8533 25 73.408 24.9093 73.824 24.728C74.2507 24.536 74.5547 24.2533 74.736 23.88C74.928 23.496 75.024 23.016 75.024 22.44V19.24H78.368V25H80.064V17.64ZM81.8878 21.32C81.8878 22.0667 82.0584 22.7333 82.3997 23.32C82.7518 23.896 83.2264 24.3493 83.8238 24.68C84.4318 25 85.1091 25.16 85.8558 25.16C86.6131 25.16 87.2904 25 87.8878 24.68C88.4851 24.3493 88.9544 23.896 89.2958 23.32C89.6478 22.7333 89.8238 22.0667 89.8238 21.32C89.8238 20.5627 89.6478 19.896 89.2958 19.32C88.9544 18.744 88.4851 18.296 87.8878 17.976C87.2904 17.6453 86.6131 17.48 85.8558 17.48C85.1091 17.48 84.4318 17.6453 83.8238 17.976C83.2264 18.296 82.7518 18.744 82.3997 19.32C82.0584 19.896 81.8878 20.5627 81.8878 21.32ZM83.6638 21.32C83.6638 20.8613 83.7598 20.456 83.9518 20.104C84.1438 19.752 84.4051 19.48 84.7358 19.288C85.0664 19.096 85.4398 19 85.8558 19C86.2718 19 86.6451 19.096 86.9758 19.288C87.3064 19.48 87.5678 19.752 87.7598 20.104C87.9518 20.456 88.0478 20.8613 88.0478 21.32C88.0478 21.7787 87.9518 22.184 87.7598 22.536C87.5678 22.8773 87.3064 23.1493 86.9758 23.352C86.6451 23.544 86.2718 23.64 85.8558 23.64C85.4398 23.64 85.0664 23.544 84.7358 23.352C84.4051 23.1493 84.1438 22.8773 83.9518 22.536C83.7598 22.184 83.6638 21.7787 83.6638 21.32ZM91.543 17.64V25H93.255V19.16H95.783V17.64H91.543Z" fill="white"/>
<line x1="15.65" y1="14.35" x2="27.35" y2="14.35" stroke="white" stroke-width="1.3" stroke-linecap="round"/>
<line x1="15.65" y1="19.35" x2="27.35" y2="19.35" stroke="white" stroke-width="1.3" stroke-linecap="round"/>
<line x1="21.65" y1="24.35" x2="27.35" y2="24.35" stroke="white" stroke-width="1.3" stroke-linecap="round"/>
</svg>
