<svg width="107" height="20" viewBox="0 0 107 20" fill="none" xmlns="http://www.w3.org/2000/svg">
<rect x="0.601562" width="106" height="20" rx="10" fill="#6F73EE"/>
<path d="M12.0789 7.80217L14.0289 12.9222H14.9289L12.0789 5.87217L9.22891 12.9222H10.1289L12.0789 7.80217ZM14.8789 13.2222V14.3222H15.6289V12.4222H8.52891V14.3222H9.27891V13.2222H14.8789ZM16.4281 10.9222C16.4281 11.3822 16.5315 11.7955 16.7381 12.1622C16.9515 12.5222 17.2381 12.8055 17.5981 13.0122C17.9581 13.2188 18.3615 13.3222 18.8081 13.3222C19.2615 13.3222 19.6648 13.2188 20.0181 13.0122C20.3781 12.8055 20.6615 12.5222 20.8681 12.1622C21.0815 11.7955 21.1881 11.3822 21.1881 10.9222C21.1881 10.4555 21.0815 10.0422 20.8681 9.68217C20.6615 9.32217 20.3781 9.03883 20.0181 8.83217C19.6648 8.6255 19.2615 8.52217 18.8081 8.52217C18.3615 8.52217 17.9581 8.6255 17.5981 8.83217C17.2381 9.03883 16.9515 9.32217 16.7381 9.68217C16.5315 10.0422 16.4281 10.4555 16.4281 10.9222ZM17.2381 10.9222C17.2381 10.6022 17.3048 10.3188 17.4381 10.0722C17.5781 9.81883 17.7648 9.62217 17.9981 9.48217C18.2381 9.34217 18.5081 9.27217 18.8081 9.27217C19.1081 9.27217 19.3748 9.34217 19.6081 9.48217C19.8481 9.62217 20.0348 9.81883 20.1681 10.0722C20.3081 10.3188 20.3781 10.6022 20.3781 10.9222C20.3781 11.2422 20.3081 11.5255 20.1681 11.7722C20.0348 12.0188 19.8481 12.2155 19.6081 12.3622C19.3748 12.5022 19.1081 12.5722 18.8081 12.5722C18.5081 12.5722 18.2381 12.5022 17.9981 12.3622C17.7648 12.2155 17.5781 12.0188 17.4381 11.7722C17.3048 11.5255 17.2381 11.2422 17.2381 10.9222ZM22.6471 10.9222C22.6471 10.6022 22.7138 10.3188 22.8471 10.0722C22.9871 9.81883 23.1738 9.62217 23.4071 9.48217C23.6471 9.34217 23.9171 9.27217 24.2171 9.27217C24.4638 9.27217 24.6938 9.31217 24.9071 9.39217C25.1271 9.4655 25.3171 9.5655 25.4771 9.69217C25.6371 9.81883 25.7504 9.95883 25.8171 10.1122V9.11217C25.6571 8.9255 25.4271 8.78217 25.1271 8.68217C24.8338 8.5755 24.5304 8.52217 24.2171 8.52217C23.7704 8.52217 23.3671 8.6255 23.0071 8.83217C22.6471 9.03883 22.3604 9.32217 22.1471 9.68217C21.9404 10.0422 21.8371 10.4555 21.8371 10.9222C21.8371 11.3822 21.9404 11.7955 22.1471 12.1622C22.3604 12.5222 22.6471 12.8055 23.0071 13.0122C23.3671 13.2188 23.7704 13.3222 24.2171 13.3222C24.5304 13.3222 24.8338 13.2722 25.1271 13.1722C25.4271 13.0655 25.6571 12.9188 25.8171 12.7322V11.7322C25.7504 11.8788 25.6371 12.0188 25.4771 12.1522C25.3171 12.2788 25.1271 12.3822 24.9071 12.4622C24.6938 12.5355 24.4638 12.5722 24.2171 12.5722C23.9171 12.5722 23.6471 12.5022 23.4071 12.3622C23.1738 12.2155 22.9871 12.0188 22.8471 11.7722C22.7138 11.5255 22.6471 11.2422 22.6471 10.9222ZM26.3625 8.62217V9.37217H29.0625V8.62217H26.3625ZM27.3125 8.82217V13.2222H28.1125V8.82217H27.3125ZM33.818 8.62217H32.918L31.498 12.1822L31.828 12.2222L30.368 8.62217H29.418L31.178 12.5722L29.918 15.4222H30.818L33.818 8.62217ZM38.3223 8.62217H34.5723V13.2222H35.3723V9.37217H37.5223V13.2222H38.3223V8.62217ZM40.2962 11.1722H43.6962V10.4222H40.2962V11.1722ZM43.1762 8.62217V13.2222H43.9762V8.62217H43.1762ZM39.8262 8.62217V13.2222H40.6262V8.62217H39.8262ZM45.8405 11.8722C45.8405 11.6855 45.8838 11.5255 45.9705 11.3922C46.0571 11.2588 46.1871 11.1555 46.3605 11.0822C46.5405 11.0088 46.7638 10.9722 47.0305 10.9722C47.3238 10.9722 47.5871 11.0122 47.8205 11.0922C48.0538 11.1655 48.2838 11.2822 48.5105 11.4422V10.9722C48.4638 10.9122 48.3771 10.8355 48.2505 10.7422C48.1238 10.6422 47.9538 10.5555 47.7405 10.4822C47.5338 10.4022 47.2838 10.3622 46.9905 10.3622C46.5905 10.3622 46.2438 10.4255 45.9505 10.5522C45.6571 10.6722 45.4305 10.8455 45.2705 11.0722C45.1105 11.2988 45.0305 11.5755 45.0305 11.9022C45.0305 12.2155 45.1005 12.4788 45.2405 12.6922C45.3871 12.8988 45.5805 13.0555 45.8205 13.1622C46.0605 13.2688 46.3238 13.3222 46.6105 13.3222C46.9305 13.3222 47.2205 13.2688 47.4805 13.1622C47.7405 13.0488 47.9471 12.8888 48.1005 12.6822C48.2605 12.4688 48.3405 12.2155 48.3405 11.9222L48.1805 11.4222C48.1805 11.7088 48.1205 11.9388 48.0005 12.1122C47.8871 12.2855 47.7271 12.4122 47.5205 12.4922C47.3138 12.5722 47.0771 12.6122 46.8105 12.6122C46.6305 12.6122 46.4671 12.5855 46.3205 12.5322C46.1738 12.4722 46.0571 12.3888 45.9705 12.2822C45.8838 12.1688 45.8405 12.0322 45.8405 11.8722ZM45.8405 9.70217C45.9138 9.64883 46.0138 9.5855 46.1405 9.51217C46.2738 9.43217 46.4305 9.3655 46.6105 9.31217C46.7905 9.25217 46.9905 9.22217 47.2105 9.22217C47.4638 9.22217 47.6871 9.28217 47.8805 9.40217C48.0805 9.5155 48.1805 9.68883 48.1805 9.92217V13.2222H48.9805V9.92217C48.9805 9.62217 48.9038 9.36883 48.7505 9.16217C48.6038 8.9555 48.3971 8.79883 48.1305 8.69217C47.8705 8.57883 47.5638 8.52217 47.2105 8.52217C46.7971 8.52217 46.4438 8.5855 46.1505 8.71217C45.8571 8.83883 45.6238 8.9655 45.4505 9.09217L45.8405 9.70217ZM54.082 15.4222V8.62217H53.282V15.4222H54.082ZM57.932 10.9222C57.932 10.4222 57.8287 9.9955 57.622 9.64217C57.4154 9.28217 57.1387 9.0055 56.792 8.81217C56.452 8.61883 56.072 8.52217 55.652 8.52217C55.272 8.52217 54.9354 8.61883 54.642 8.81217C54.3554 9.0055 54.1287 9.28217 53.962 9.64217C53.802 9.9955 53.722 10.4222 53.722 10.9222C53.722 11.4155 53.802 11.8422 53.962 12.2022C54.1287 12.5622 54.3554 12.8388 54.642 13.0322C54.9354 13.2255 55.272 13.3222 55.652 13.3222C56.072 13.3222 56.452 13.2255 56.792 13.0322C57.1387 12.8388 57.4154 12.5622 57.622 12.2022C57.8287 11.8422 57.932 11.4155 57.932 10.9222ZM57.122 10.9222C57.122 11.2755 57.0487 11.5755 56.902 11.8222C56.762 12.0688 56.572 12.2555 56.332 12.3822C56.0987 12.5088 55.8387 12.5722 55.552 12.5722C55.3187 12.5722 55.0887 12.5088 54.862 12.3822C54.6354 12.2555 54.4487 12.0688 54.302 11.8222C54.1554 11.5755 54.082 11.2755 54.082 10.9222C54.082 10.5688 54.1554 10.2688 54.302 10.0222C54.4487 9.7755 54.6354 9.58883 54.862 9.46217C55.0887 9.3355 55.3187 9.27217 55.552 9.27217C55.8387 9.27217 56.0987 9.3355 56.332 9.46217C56.572 9.58883 56.762 9.7755 56.902 10.0222C57.0487 10.2688 57.122 10.5688 57.122 10.9222ZM59.3952 11.8722C59.3952 11.6855 59.4385 11.5255 59.5252 11.3922C59.6118 11.2588 59.7418 11.1555 59.9152 11.0822C60.0952 11.0088 60.3185 10.9722 60.5852 10.9722C60.8785 10.9722 61.1418 11.0122 61.3752 11.0922C61.6085 11.1655 61.8385 11.2822 62.0652 11.4422V10.9722C62.0185 10.9122 61.9318 10.8355 61.8052 10.7422C61.6785 10.6422 61.5085 10.5555 61.2952 10.4822C61.0885 10.4022 60.8385 10.3622 60.5452 10.3622C60.1452 10.3622 59.7985 10.4255 59.5052 10.5522C59.2118 10.6722 58.9852 10.8455 58.8252 11.0722C58.6652 11.2988 58.5852 11.5755 58.5852 11.9022C58.5852 12.2155 58.6552 12.4788 58.7952 12.6922C58.9418 12.8988 59.1352 13.0555 59.3752 13.1622C59.6152 13.2688 59.8785 13.3222 60.1652 13.3222C60.4852 13.3222 60.7752 13.2688 61.0352 13.1622C61.2952 13.0488 61.5018 12.8888 61.6552 12.6822C61.8152 12.4688 61.8952 12.2155 61.8952 11.9222L61.7352 11.4222C61.7352 11.7088 61.6752 11.9388 61.5552 12.1122C61.4418 12.2855 61.2818 12.4122 61.0752 12.4922C60.8685 12.5722 60.6318 12.6122 60.3652 12.6122C60.1852 12.6122 60.0218 12.5855 59.8752 12.5322C59.7285 12.4722 59.6118 12.3888 59.5252 12.2822C59.4385 12.1688 59.3952 12.0322 59.3952 11.8722ZM59.3952 9.70217C59.4685 9.64883 59.5685 9.5855 59.6952 9.51217C59.8285 9.43217 59.9852 9.3655 60.1652 9.31217C60.3452 9.25217 60.5452 9.22217 60.7652 9.22217C61.0185 9.22217 61.2418 9.28217 61.4352 9.40217C61.6352 9.5155 61.7352 9.68883 61.7352 9.92217V13.2222H62.5352V9.92217C62.5352 9.62217 62.4585 9.36883 62.3052 9.16217C62.1585 8.9555 61.9518 8.79883 61.6852 8.69217C61.4252 8.57883 61.1185 8.52217 60.7652 8.52217C60.3518 8.52217 59.9985 8.5855 59.7052 8.71217C59.4118 8.83883 59.1785 8.9655 59.0052 9.09217L59.3952 9.70217ZM64.2487 10.9222C64.2487 10.6022 64.3153 10.3188 64.4487 10.0722C64.5887 9.81883 64.7753 9.62217 65.0087 9.48217C65.2487 9.34217 65.5187 9.27217 65.8187 9.27217C66.0653 9.27217 66.2953 9.31217 66.5087 9.39217C66.7287 9.4655 66.9187 9.5655 67.0787 9.69217C67.2387 9.81883 67.352 9.95883 67.4187 10.1122V9.11217C67.2587 8.9255 67.0287 8.78217 66.7287 8.68217C66.4353 8.5755 66.132 8.52217 65.8187 8.52217C65.372 8.52217 64.9687 8.6255 64.6087 8.83217C64.2487 9.03883 63.962 9.32217 63.7487 9.68217C63.542 10.0422 63.4387 10.4555 63.4387 10.9222C63.4387 11.3822 63.542 11.7955 63.7487 12.1622C63.962 12.5222 64.2487 12.8055 64.6087 13.0122C64.9687 13.2188 65.372 13.3222 65.8187 13.3222C66.132 13.3222 66.4353 13.2722 66.7287 13.1722C67.0287 13.0655 67.2587 12.9188 67.4187 12.7322V11.7322C67.352 11.8788 67.2387 12.0188 67.0787 12.1522C66.9187 12.2788 66.7287 12.3822 66.5087 12.4622C66.2953 12.5355 66.0653 12.5722 65.8187 12.5722C65.5187 12.5722 65.2487 12.5022 65.0087 12.3622C64.7753 12.2155 64.5887 12.0188 64.4487 11.7722C64.3153 11.5255 64.2487 11.2422 64.2487 10.9222ZM69.0241 10.9222C69.0241 10.6022 69.0907 10.3188 69.2241 10.0722C69.3641 9.81883 69.5507 9.62217 69.7841 9.48217C70.0241 9.34217 70.2941 9.27217 70.5941 9.27217C70.8407 9.27217 71.0707 9.31217 71.2841 9.39217C71.5041 9.4655 71.6941 9.5655 71.8541 9.69217C72.0141 9.81883 72.1274 9.95883 72.1941 10.1122V9.11217C72.0341 8.9255 71.8041 8.78217 71.5041 8.68217C71.2107 8.5755 70.9074 8.52217 70.5941 8.52217C70.1474 8.52217 69.7441 8.6255 69.3841 8.83217C69.0241 9.03883 68.7374 9.32217 68.5241 9.68217C68.3174 10.0422 68.2141 10.4555 68.2141 10.9222C68.2141 11.3822 68.3174 11.7955 68.5241 12.1622C68.7374 12.5222 69.0241 12.8055 69.3841 13.0122C69.7441 13.2188 70.1474 13.3222 70.5941 13.3222C70.9074 13.3222 71.2107 13.2722 71.5041 13.1722C71.8041 13.0655 72.0341 12.9188 72.1941 12.7322V11.7322C72.1274 11.8788 72.0141 12.0188 71.8541 12.1522C71.6941 12.2788 71.5041 12.3822 71.2841 12.4622C71.0707 12.5355 70.8407 12.5722 70.5941 12.5722C70.2941 12.5722 70.0241 12.5022 69.7841 12.3622C69.5507 12.2155 69.3641 12.0188 69.2241 11.7722C69.0907 11.5255 69.0241 11.2422 69.0241 10.9222ZM74.1895 15.4222V8.62217H73.3895V15.4222H74.1895ZM78.0395 10.9222C78.0395 10.4222 77.9361 9.9955 77.7295 9.64217C77.5228 9.28217 77.2461 9.0055 76.8995 8.81217C76.5595 8.61883 76.1795 8.52217 75.7595 8.52217C75.3795 8.52217 75.0428 8.61883 74.7495 8.81217C74.4628 9.0055 74.2361 9.28217 74.0695 9.64217C73.9095 9.9955 73.8295 10.4222 73.8295 10.9222C73.8295 11.4155 73.9095 11.8422 74.0695 12.2022C74.2361 12.5622 74.4628 12.8388 74.7495 13.0322C75.0428 13.2255 75.3795 13.3222 75.7595 13.3222C76.1795 13.3222 76.5595 13.2255 76.8995 13.0322C77.2461 12.8388 77.5228 12.5622 77.7295 12.2022C77.9361 11.8422 78.0395 11.4155 78.0395 10.9222ZM77.2295 10.9222C77.2295 11.2755 77.1561 11.5755 77.0095 11.8222C76.8695 12.0688 76.6795 12.2555 76.4395 12.3822C76.2061 12.5088 75.9461 12.5722 75.6595 12.5722C75.4261 12.5722 75.1961 12.5088 74.9695 12.3822C74.7428 12.2555 74.5561 12.0688 74.4095 11.8222C74.2628 11.5755 74.1895 11.2755 74.1895 10.9222C74.1895 10.5688 74.2628 10.2688 74.4095 10.0222C74.5561 9.7755 74.7428 9.58883 74.9695 9.46217C75.1961 9.3355 75.4261 9.27217 75.6595 9.27217C75.9461 9.27217 76.2061 9.3355 76.4395 9.46217C76.6795 9.58883 76.8695 9.7755 77.0095 10.0222C77.1561 10.2688 77.2295 10.5688 77.2295 10.9222ZM78.7426 10.9222C78.7426 11.3822 78.8459 11.7955 79.0526 12.1622C79.2659 12.5222 79.5526 12.8055 79.9126 13.0122C80.2726 13.2188 80.6759 13.3222 81.1226 13.3222C81.5759 13.3222 81.9792 13.2188 82.3326 13.0122C82.6926 12.8055 82.9759 12.5222 83.1826 12.1622C83.3959 11.7955 83.5026 11.3822 83.5026 10.9222C83.5026 10.4555 83.3959 10.0422 83.1826 9.68217C82.9759 9.32217 82.6926 9.03883 82.3326 8.83217C81.9792 8.6255 81.5759 8.52217 81.1226 8.52217C80.6759 8.52217 80.2726 8.6255 79.9126 8.83217C79.5526 9.03883 79.2659 9.32217 79.0526 9.68217C78.8459 10.0422 78.7426 10.4555 78.7426 10.9222ZM79.5526 10.9222C79.5526 10.6022 79.6192 10.3188 79.7526 10.0722C79.8926 9.81883 80.0792 9.62217 80.3126 9.48217C80.5526 9.34217 80.8226 9.27217 81.1226 9.27217C81.4226 9.27217 81.6892 9.34217 81.9226 9.48217C82.1626 9.62217 82.3492 9.81883 82.4826 10.0722C82.6226 10.3188 82.6926 10.6022 82.6926 10.9222C82.6926 11.2422 82.6226 11.5255 82.4826 11.7722C82.3492 12.0188 82.1626 12.2155 81.9226 12.3622C81.6892 12.5022 81.4226 12.5722 81.1226 12.5722C80.8226 12.5722 80.5526 12.5022 80.3126 12.3622C80.0792 12.2155 79.8926 12.0188 79.7526 11.7722C79.6192 11.5255 79.5526 11.2422 79.5526 10.9222ZM86.1516 11.8222H87.7216V11.0722H86.1516V11.8222ZM87.1516 8.62217V13.2222H87.9516V8.62217H87.1516ZM85.1516 8.62217H84.3516V9.94217C84.3516 10.3888 84.4049 10.7522 84.5116 11.0322C84.6182 11.3055 84.8016 11.5055 85.0616 11.6322C85.3282 11.7588 85.6916 11.8222 86.1516 11.8222V11.0722C85.8982 11.0722 85.6982 11.0355 85.5516 10.9622C85.4049 10.8822 85.3016 10.7588 85.2416 10.5922C85.1816 10.4255 85.1516 10.2088 85.1516 9.94217V8.62217ZM89.4051 8.62217V13.2222H90.2051V8.62217H89.4051ZM91.9051 8.62217L89.9051 10.5222L92.1051 13.2222H93.1051L90.9051 10.5222L92.9051 8.62217H91.9051ZM94.2194 11.8722C94.2194 11.6855 94.2627 11.5255 94.3494 11.3922C94.436 11.2588 94.566 11.1555 94.7394 11.0822C94.9194 11.0088 95.1427 10.9722 95.4094 10.9722C95.7027 10.9722 95.966 11.0122 96.1994 11.0922C96.4327 11.1655 96.6627 11.2822 96.8894 11.4422V10.9722C96.8427 10.9122 96.756 10.8355 96.6294 10.7422C96.5027 10.6422 96.3327 10.5555 96.1194 10.4822C95.9127 10.4022 95.6627 10.3622 95.3694 10.3622C94.9694 10.3622 94.6227 10.4255 94.3294 10.5522C94.036 10.6722 93.8094 10.8455 93.6494 11.0722C93.4894 11.2988 93.4094 11.5755 93.4094 11.9022C93.4094 12.2155 93.4794 12.4788 93.6194 12.6922C93.766 12.8988 93.9594 13.0555 94.1994 13.1622C94.4394 13.2688 94.7027 13.3222 94.9894 13.3222C95.3094 13.3222 95.5994 13.2688 95.8594 13.1622C96.1194 13.0488 96.326 12.8888 96.4794 12.6822C96.6394 12.4688 96.7194 12.2155 96.7194 11.9222L96.5594 11.4222C96.5594 11.7088 96.4994 11.9388 96.3794 12.1122C96.266 12.2855 96.106 12.4122 95.8994 12.4922C95.6927 12.5722 95.456 12.6122 95.1894 12.6122C95.0094 12.6122 94.846 12.5855 94.6994 12.5322C94.5527 12.4722 94.436 12.3888 94.3494 12.2822C94.2627 12.1688 94.2194 12.0322 94.2194 11.8722ZM94.2194 9.70217C94.2927 9.64883 94.3927 9.5855 94.5194 9.51217C94.6527 9.43217 94.8094 9.3655 94.9894 9.31217C95.1694 9.25217 95.3694 9.22217 95.5894 9.22217C95.8427 9.22217 96.066 9.28217 96.2594 9.40217C96.4594 9.5155 96.5594 9.68883 96.5594 9.92217V13.2222H97.3594V9.92217C97.3594 9.62217 97.2827 9.36883 97.1294 9.16217C96.9827 8.9555 96.776 8.79883 96.5094 8.69217C96.2494 8.57883 95.9427 8.52217 95.5894 8.52217C95.176 8.52217 94.8227 8.5855 94.5294 8.71217C94.236 8.83883 94.0027 8.9655 93.8294 9.09217L94.2194 9.70217Z" fill="white"/>
</svg>
