<svg width="18" height="16" viewBox="0 0 18 16" fill="none" xmlns="http://www.w3.org/2000/svg">
<path d="M8.47243 3.56419V0.23584C6.43963 0.352523 4.53332 1.14245 3.01172 2.49853L5.36494 4.85175C6.25052 4.11452 7.32585 3.66895 8.47243 3.56419Z" fill="#5D6C7B"/>
<path d="M4.61876 5.59732L2.26557 3.24414C0.908332 4.76531 0.117422 6.67176 0 8.70505H3.32849C3.43396 7.55822 3.88044 6.48283 4.61876 5.59732Z" fill="#5D6C7B"/>
<path d="M14.6692 8.70505H17.9977C17.8802 6.67176 17.0894 4.76531 15.7321 3.24414L13.3789 5.59732C14.1172 6.4828 14.5637 7.55822 14.6692 8.70505Z" fill="#5D6C7B"/>
<path d="M14.6696 9.75977C14.4951 11.6757 13.4434 12.8447 13.0258 13.2622C12.8195 13.4685 12.8195 13.803 13.0258 14.0093L14.6259 15.6094C14.729 15.7126 14.8642 15.7641 14.9994 15.7641C15.1346 15.7641 15.2697 15.7126 15.3729 15.6094C16.9523 14.0302 17.8732 11.9695 17.9992 9.75977H14.6696Z" fill="#5D6C7B"/>
<path d="M3.27189 12.7856C3.41919 12.5541 3.64215 12.2055 3.90962 11.7931C3.63544 11.2496 3.40358 10.5721 3.32965 9.75977H0C0.126035 11.9695 1.04695 14.0302 2.62628 15.6094C2.72943 15.7126 2.8646 15.7642 2.99978 15.7642C3.13495 15.7642 3.27016 15.7126 3.37331 15.6094L3.92119 15.0615C3.76249 14.9851 3.61607 14.8819 3.48785 14.7537C2.95952 14.2253 2.87068 13.416 3.27189 12.7856Z" fill="#5D6C7B"/>
<path d="M9.52734 0.23584V3.56419C10.6739 3.66895 11.7493 4.11449 12.6348 4.85175L14.9881 2.49853C13.4665 1.14241 11.5601 0.352523 9.52734 0.23584Z" fill="#5D6C7B"/>
<path d="M7.82725 8.06949C7.01106 8.88568 4.44992 12.8968 4.16059 13.3515C4.02787 13.56 4.05783 13.8327 4.23259 14.0075C4.40735 14.1823 4.68006 14.2123 4.88861 14.0795C5.34328 13.7902 9.35448 11.2291 10.1707 10.4129C10.8167 9.76683 10.8167 8.71559 10.1707 8.06953C9.5246 7.42346 8.47332 7.42343 7.82725 8.06949Z" fill="#5D6C7B"/>
</svg>
