<svg width="770" height="40" viewBox="0 0 770 40" fill="none" xmlns="http://www.w3.org/2000/svg">
<path d="M57.324 10.1C57.324 9.4 57.478 8.79333 57.786 8.28C58.1033 7.75733 58.514 7.356 59.018 7.076C59.522 6.78667 60.0727 6.642 60.67 6.642C61.1367 6.642 61.5567 6.70267 61.93 6.824C62.3127 6.94533 62.6533 7.11333 62.952 7.328C63.2507 7.53333 63.512 7.76667 63.736 8.028V6.068C63.3347 5.72267 62.8913 5.46133 62.406 5.284C61.93 5.10667 61.3327 5.018 60.614 5.018C59.8953 5.018 59.2233 5.144 58.598 5.396C57.982 5.63867 57.4453 5.98867 56.988 6.446C56.5307 6.894 56.1713 7.43067 55.91 8.056C55.658 8.672 55.532 9.35333 55.532 10.1C55.532 10.8373 55.658 11.5187 55.91 12.144C56.1713 12.76 56.5307 13.2967 56.988 13.754C57.4453 14.2113 57.982 14.5613 58.598 14.804C59.2233 15.0467 59.8953 15.168 60.614 15.168C61.3327 15.168 61.93 15.0793 62.406 14.902C62.8913 14.7247 63.3347 14.468 63.736 14.132V12.158C63.512 12.4287 63.2507 12.6713 62.952 12.886C62.6533 13.0913 62.3127 13.2547 61.93 13.376C61.5567 13.4973 61.1367 13.558 60.67 13.558C60.0727 13.558 59.522 13.4133 59.018 13.124C58.514 12.8347 58.1033 12.4333 57.786 11.92C57.478 11.3973 57.324 10.7907 57.324 10.1ZM66.0657 12.13H71.7217C71.731 12.046 71.7357 11.9713 71.7357 11.906C71.7357 11.8313 71.7357 11.766 71.7357 11.71C71.7357 11.0287 71.605 10.4453 71.3437 9.96C71.0917 9.46533 70.723 9.08733 70.2377 8.826C69.7617 8.55533 69.1877 8.42 68.5157 8.42C67.909 8.42 67.3724 8.532 66.9057 8.756C66.439 8.98 66.061 9.29267 65.7717 9.694C65.4917 10.0953 65.305 10.562 65.2117 11.094C65.193 11.206 65.179 11.318 65.1697 11.43C65.1604 11.542 65.1557 11.6587 65.1557 11.78C65.1557 12.424 65.291 13.0027 65.5617 13.516C65.8324 14.02 66.215 14.4167 66.7097 14.706C67.2137 14.9953 67.7924 15.14 68.4457 15.14C69.0337 15.14 69.5237 15.07 69.9157 14.93C70.317 14.7807 70.6577 14.5753 70.9377 14.314C71.2177 14.0527 71.465 13.7447 71.6797 13.39L70.3637 12.872C70.2424 13.0773 70.093 13.2593 69.9157 13.418C69.7384 13.5673 69.533 13.684 69.2997 13.768C69.0757 13.852 68.8144 13.894 68.5157 13.894C68.161 13.894 67.8437 13.8193 67.5637 13.67C67.293 13.5113 67.0784 13.2733 66.9197 12.956C66.7704 12.6387 66.6957 12.2467 66.6957 11.78L66.7237 11.388C66.7237 11.0147 66.7984 10.6927 66.9477 10.422C67.1064 10.142 67.321 9.932 67.5917 9.792C67.8624 9.64267 68.1657 9.568 68.5017 9.568C68.8284 9.568 69.1037 9.63333 69.3277 9.764C69.5517 9.88533 69.7244 10.0627 69.8457 10.296C69.9764 10.52 70.0604 10.7813 70.0977 11.08H66.0657V12.13ZM74.6626 18.08V8.56H73.1366V18.08H74.6626ZM79.9966 11.78C79.9966 11.052 79.8519 10.4407 79.5626 9.946C79.2732 9.442 78.8906 9.05467 78.4146 8.784C77.9386 8.51333 77.4206 8.378 76.8606 8.378C76.3192 8.378 75.8432 8.518 75.4326 8.798C75.0312 9.078 74.7186 9.47 74.4946 9.974C74.2706 10.478 74.1586 11.08 74.1586 11.78C74.1586 12.4707 74.2706 13.0727 74.4946 13.586C74.7186 14.09 75.0312 14.482 75.4326 14.762C75.8432 15.0327 76.3192 15.168 76.8606 15.168C77.4206 15.168 77.9386 15.0373 78.4146 14.776C78.8906 14.5053 79.2732 14.118 79.5626 13.614C79.8519 13.1007 79.9966 12.4893 79.9966 11.78ZM78.4286 11.78C78.4286 12.2093 78.3399 12.5733 78.1626 12.872C77.9852 13.1707 77.7519 13.3993 77.4626 13.558C77.1732 13.7167 76.8512 13.796 76.4966 13.796C76.1979 13.796 75.9086 13.7213 75.6286 13.572C75.3486 13.4133 75.1152 13.1847 74.9286 12.886C74.7512 12.5873 74.6626 12.2187 74.6626 11.78C74.6626 11.3413 74.7512 10.9727 74.9286 10.674C75.1152 10.3753 75.3486 10.1513 75.6286 10.002C75.9086 9.84333 76.1979 9.764 76.4966 9.764C76.8512 9.764 77.1732 9.84333 77.4626 10.002C77.7519 10.1513 77.9852 10.38 78.1626 10.688C78.3399 10.9867 78.4286 11.3507 78.4286 11.78ZM82.4027 11.64V12.298H84.2647C84.4514 12.298 84.61 12.3167 84.7407 12.354C84.8807 12.3913 84.988 12.4473 85.0627 12.522C85.1467 12.5967 85.212 12.6807 85.2587 12.774C85.3054 12.858 85.3287 12.9607 85.3287 13.082C85.3287 13.2967 85.2447 13.4833 85.0767 13.642C84.9087 13.8007 84.638 13.88 84.2647 13.88H82.4027V15H84.7267C85.464 15 85.9914 14.832 86.3087 14.496C86.6354 14.1507 86.7987 13.7353 86.7987 13.25C86.7987 12.83 86.696 12.5033 86.4907 12.27C86.2854 12.0367 86.0054 11.8733 85.6507 11.78C85.296 11.6867 84.8947 11.64 84.4467 11.64H82.4027ZM82.4027 11.92H84.3067C84.708 11.92 85.072 11.864 85.3987 11.752C85.7347 11.6307 86.0054 11.4533 86.2107 11.22C86.416 10.9773 86.5187 10.674 86.5187 10.31C86.5187 9.89 86.416 9.554 86.2107 9.302C86.0054 9.04067 85.7347 8.854 85.3987 8.742C85.072 8.62067 84.708 8.56 84.3067 8.56H82.4027V9.68H84.1247C84.414 9.68 84.638 9.75 84.7967 9.89C84.9647 10.03 85.0487 10.2073 85.0487 10.422C85.0487 10.5247 85.0254 10.6227 84.9787 10.716C84.9414 10.8093 84.8807 10.8933 84.7967 10.968C84.722 11.0427 84.6287 11.0987 84.5167 11.136C84.4047 11.1733 84.274 11.192 84.1247 11.192H82.4027V11.92ZM81.5207 8.56V15H83.0047V8.56H81.5207ZM94.0286 9.96L94.0986 8.07L88.3166 13.6L88.2466 15.49L94.0286 9.96ZM89.7306 8.56H88.2466V15.49L89.7306 13.768V8.56ZM94.0986 8.07L92.6146 9.778V15H94.0986V8.07ZM97.101 11.78C97.101 11.3787 97.1896 11.024 97.367 10.716C97.5443 10.408 97.7823 10.1653 98.081 9.988C98.389 9.81067 98.7296 9.722 99.103 9.722C99.4016 9.722 99.691 9.76867 99.971 9.862C100.251 9.95533 100.498 10.086 100.713 10.254C100.937 10.4127 101.1 10.5993 101.203 10.814V9.134C100.979 8.91933 100.676 8.74667 100.293 8.616C99.9103 8.48533 99.4903 8.42 99.033 8.42C98.3796 8.42 97.787 8.56467 97.255 8.854C96.7323 9.134 96.317 9.526 96.009 10.03C95.701 10.534 95.547 11.1173 95.547 11.78C95.547 12.4333 95.701 13.0167 96.009 13.53C96.317 14.034 96.7323 14.4307 97.255 14.72C97.787 15 98.3796 15.14 99.033 15.14C99.4903 15.14 99.9103 15.0747 100.293 14.944C100.676 14.8133 100.979 14.636 101.203 14.412V12.746C101.1 12.9513 100.942 13.138 100.727 13.306C100.512 13.4647 100.265 13.5953 99.985 13.698C99.7143 13.7913 99.4203 13.838 99.103 13.838C98.7296 13.838 98.389 13.7493 98.081 13.572C97.7823 13.3947 97.5443 13.152 97.367 12.844C97.1896 12.536 97.101 12.1813 97.101 11.78ZM103.532 12.228H108.46V10.968H103.532V12.228ZM107.648 8.56V15H109.132V8.56H107.648ZM102.874 8.56V15H104.358V8.56H102.874ZM117.308 8.56V15H118.834V8.56H117.308ZM111.064 8.56V15H112.59V8.56H111.064ZM112.128 12.032H113.976C114.312 12.032 114.568 12.1067 114.746 12.256C114.923 12.4053 115.012 12.62 115.012 12.9C115.012 13.0773 114.97 13.2313 114.886 13.362C114.811 13.4927 114.694 13.5907 114.536 13.656C114.386 13.7213 114.2 13.754 113.976 13.754H112.128V15H114.13C114.578 15 114.979 14.9207 115.334 14.762C115.688 14.6033 115.968 14.3653 116.174 14.048C116.379 13.7307 116.482 13.3433 116.482 12.886C116.482 12.1953 116.253 11.6913 115.796 11.374C115.348 11.0473 114.792 10.884 114.13 10.884H112.128V12.032ZM121.191 12.13H126.847C126.856 12.046 126.861 11.9713 126.861 11.906C126.861 11.8313 126.861 11.766 126.861 11.71C126.861 11.0287 126.73 10.4453 126.469 9.96C126.217 9.46533 125.848 9.08733 125.363 8.826C124.887 8.55533 124.313 8.42 123.641 8.42C123.034 8.42 122.497 8.532 122.031 8.756C121.564 8.98 121.186 9.29267 120.897 9.694C120.617 10.0953 120.43 10.562 120.337 11.094C120.318 11.206 120.304 11.318 120.295 11.43C120.285 11.542 120.281 11.6587 120.281 11.78C120.281 12.424 120.416 13.0027 120.687 13.516C120.957 14.02 121.34 14.4167 121.835 14.706C122.339 14.9953 122.917 15.14 123.571 15.14C124.159 15.14 124.649 15.07 125.041 14.93C125.442 14.7807 125.783 14.5753 126.063 14.314C126.343 14.0527 126.59 13.7447 126.805 13.39L125.489 12.872C125.367 13.0773 125.218 13.2593 125.041 13.418C124.863 13.5673 124.658 13.684 124.425 13.768C124.201 13.852 123.939 13.894 123.641 13.894C123.286 13.894 122.969 13.8193 122.689 13.67C122.418 13.5113 122.203 13.2733 122.045 12.956C121.895 12.6387 121.821 12.2467 121.821 11.78L121.849 11.388C121.849 11.0147 121.923 10.6927 122.073 10.422C122.231 10.142 122.446 9.932 122.717 9.792C122.987 9.64267 123.291 9.568 123.627 9.568C123.953 9.568 124.229 9.63333 124.453 9.764C124.677 9.88533 124.849 10.0627 124.971 10.296C125.101 10.52 125.185 10.7813 125.223 11.08H121.191V12.13ZM138.255 13.67V8.56H136.729V13.67H134.041V8.56H132.515V15H137.989V16.33H139.375V13.67H138.255ZM141.165 12.13H146.821C146.831 12.046 146.835 11.9713 146.835 11.906C146.835 11.8313 146.835 11.766 146.835 11.71C146.835 11.0287 146.705 10.4453 146.443 9.96C146.191 9.46533 145.823 9.08733 145.337 8.826C144.861 8.55533 144.287 8.42 143.615 8.42C143.009 8.42 142.472 8.532 142.005 8.756C141.539 8.98 141.161 9.29267 140.871 9.694C140.591 10.0953 140.405 10.562 140.311 11.094C140.293 11.206 140.279 11.318 140.269 11.43C140.26 11.542 140.255 11.6587 140.255 11.78C140.255 12.424 140.391 13.0027 140.661 13.516C140.932 14.02 141.315 14.4167 141.809 14.706C142.313 14.9953 142.892 15.14 143.545 15.14C144.133 15.14 144.623 15.07 145.015 14.93C145.417 14.7807 145.757 14.5753 146.037 14.314C146.317 14.0527 146.565 13.7447 146.779 13.39L145.463 12.872C145.342 13.0773 145.193 13.2593 145.015 13.418C144.838 13.5673 144.633 13.684 144.399 13.768C144.175 13.852 143.914 13.894 143.615 13.894C143.261 13.894 142.943 13.8193 142.663 13.67C142.393 13.5113 142.178 13.2733 142.019 12.956C141.87 12.6387 141.795 12.2467 141.795 11.78L141.823 11.388C141.823 11.0147 141.898 10.6927 142.047 10.422C142.206 10.142 142.421 9.932 142.691 9.792C142.962 9.64267 143.265 9.568 143.601 9.568C143.928 9.568 144.203 9.63333 144.427 9.764C144.651 9.88533 144.824 10.0627 144.945 10.296C145.076 10.52 145.16 10.7813 145.197 11.08H141.165V12.13ZM148.95 12.228H153.878V10.968H148.95V12.228ZM153.066 8.56V15H154.55V8.56H153.066ZM148.292 8.56V15H149.776V8.56H148.292ZM155.586 8.56V9.89H159.66V8.56H155.586ZM156.888 8.84V15H158.372V8.84H156.888ZM162.163 18.08V8.56H160.637V18.08H162.163ZM167.497 11.78C167.497 11.052 167.352 10.4407 167.063 9.946C166.773 9.442 166.391 9.05467 165.915 8.784C165.439 8.51333 164.921 8.378 164.361 8.378C163.819 8.378 163.343 8.518 162.933 8.798C162.531 9.078 162.219 9.47 161.995 9.974C161.771 10.478 161.659 11.08 161.659 11.78C161.659 12.4707 161.771 13.0727 161.995 13.586C162.219 14.09 162.531 14.482 162.933 14.762C163.343 15.0327 163.819 15.168 164.361 15.168C164.921 15.168 165.439 15.0373 165.915 14.776C166.391 14.5053 166.773 14.118 167.063 13.614C167.352 13.1007 167.497 12.4893 167.497 11.78ZM165.929 11.78C165.929 12.2093 165.84 12.5733 165.663 12.872C165.485 13.1707 165.252 13.3993 164.963 13.558C164.673 13.7167 164.351 13.796 163.997 13.796C163.698 13.796 163.409 13.7213 163.129 13.572C162.849 13.4133 162.615 13.1847 162.429 12.886C162.251 12.5873 162.163 12.2187 162.163 11.78C162.163 11.3413 162.251 10.9727 162.429 10.674C162.615 10.3753 162.849 10.1513 163.129 10.002C163.409 9.84333 163.698 9.764 163.997 9.764C164.351 9.764 164.673 9.84333 164.963 10.002C165.252 10.1513 165.485 10.38 165.663 10.688C165.84 10.9867 165.929 11.3507 165.929 11.78ZM175.181 8.56V15H176.707V8.56H175.181ZM168.937 8.56V15H170.463V8.56H168.937ZM170.001 12.032H171.849C172.185 12.032 172.441 12.1067 172.619 12.256C172.796 12.4053 172.885 12.62 172.885 12.9C172.885 13.0773 172.843 13.2313 172.759 13.362C172.684 13.4927 172.567 13.5907 172.409 13.656C172.259 13.7213 172.073 13.754 171.849 13.754H170.001V15H172.003C172.451 15 172.852 14.9207 173.207 14.762C173.561 14.6033 173.841 14.3653 174.047 14.048C174.252 13.7307 174.355 13.3433 174.355 12.886C174.355 12.1953 174.126 11.6913 173.669 11.374C173.221 11.0473 172.665 10.884 172.003 10.884H170.001V12.032ZM183.807 11.64V12.298H185.669C185.856 12.298 186.014 12.3167 186.145 12.354C186.285 12.3913 186.392 12.4473 186.467 12.522C186.551 12.5967 186.616 12.6807 186.663 12.774C186.71 12.858 186.733 12.9607 186.733 13.082C186.733 13.2967 186.649 13.4833 186.481 13.642C186.313 13.8007 186.042 13.88 185.669 13.88H183.807V15H186.131C186.868 15 187.396 14.832 187.713 14.496C188.04 14.1507 188.203 13.7353 188.203 13.25C188.203 12.83 188.1 12.5033 187.895 12.27C187.69 12.0367 187.41 11.8733 187.055 11.78C186.7 11.6867 186.299 11.64 185.851 11.64H183.807ZM183.807 11.92H185.711C186.112 11.92 186.476 11.864 186.803 11.752C187.139 11.6307 187.41 11.4533 187.615 11.22C187.82 10.9773 187.923 10.674 187.923 10.31C187.923 9.89 187.82 9.554 187.615 9.302C187.41 9.04067 187.139 8.854 186.803 8.742C186.476 8.62067 186.112 8.56 185.711 8.56H183.807V9.68H185.529C185.818 9.68 186.042 9.75 186.201 9.89C186.369 10.03 186.453 10.2073 186.453 10.422C186.453 10.5247 186.43 10.6227 186.383 10.716C186.346 10.8093 186.285 10.8933 186.201 10.968C186.126 11.0427 186.033 11.0987 185.921 11.136C185.809 11.1733 185.678 11.192 185.529 11.192H183.807V11.92ZM182.925 8.56V15H184.409V8.56H182.925ZM195.738 9.036L198.72 14.09L201.716 9.036L202.388 15H204.096L202.752 4.71L198.72 11.36L194.702 4.71L193.358 15H195.066L195.738 9.036ZM205.101 11.78C205.101 12.4333 205.25 13.0167 205.549 13.53C205.857 14.034 206.272 14.4307 206.795 14.72C207.327 15 207.92 15.14 208.573 15.14C209.236 15.14 209.828 15 210.351 14.72C210.874 14.4307 211.284 14.034 211.583 13.53C211.891 13.0167 212.045 12.4333 212.045 11.78C212.045 11.1173 211.891 10.534 211.583 10.03C211.284 9.526 210.874 9.134 210.351 8.854C209.828 8.56467 209.236 8.42 208.573 8.42C207.92 8.42 207.327 8.56467 206.795 8.854C206.272 9.134 205.857 9.526 205.549 10.03C205.25 10.534 205.101 11.1173 205.101 11.78ZM206.655 11.78C206.655 11.3787 206.739 11.024 206.907 10.716C207.075 10.408 207.304 10.17 207.593 10.002C207.882 9.834 208.209 9.75 208.573 9.75C208.937 9.75 209.264 9.834 209.553 10.002C209.842 10.17 210.071 10.408 210.239 10.716C210.407 11.024 210.491 11.3787 210.491 11.78C210.491 12.1813 210.407 12.536 210.239 12.844C210.071 13.1427 209.842 13.3807 209.553 13.558C209.264 13.726 208.937 13.81 208.573 13.81C208.209 13.81 207.882 13.726 207.593 13.558C207.304 13.3807 207.075 13.1427 206.907 12.844C206.739 12.536 206.655 12.1813 206.655 11.78ZM214.501 11.78C214.501 11.3787 214.59 11.024 214.767 10.716C214.945 10.408 215.183 10.1653 215.481 9.988C215.789 9.81067 216.13 9.722 216.503 9.722C216.802 9.722 217.091 9.76867 217.371 9.862C217.651 9.95533 217.899 10.086 218.113 10.254C218.337 10.4127 218.501 10.5993 218.603 10.814V9.134C218.379 8.91933 218.076 8.74667 217.693 8.616C217.311 8.48533 216.891 8.42 216.433 8.42C215.78 8.42 215.187 8.56467 214.655 8.854C214.133 9.134 213.717 9.526 213.409 10.03C213.101 10.534 212.947 11.1173 212.947 11.78C212.947 12.4333 213.101 13.0167 213.409 13.53C213.717 14.034 214.133 14.4307 214.655 14.72C215.187 15 215.78 15.14 216.433 15.14C216.891 15.14 217.311 15.0747 217.693 14.944C218.076 14.8133 218.379 14.636 218.603 14.412V12.746C218.501 12.9513 218.342 13.138 218.127 13.306C217.913 13.4647 217.665 13.5953 217.385 13.698C217.115 13.7913 216.821 13.838 216.503 13.838C216.13 13.838 215.789 13.7493 215.481 13.572C215.183 13.3947 214.945 13.152 214.767 12.844C214.59 12.536 214.501 12.1813 214.501 11.78ZM220.219 8.56V15H221.703V8.56H220.219ZM224.069 8.56L221.297 11.22L224.363 15H226.211L223.145 11.22L225.931 8.56H224.069ZM228.172 11.64V12.298H230.034C230.221 12.298 230.38 12.3167 230.51 12.354C230.65 12.3913 230.758 12.4473 230.832 12.522C230.916 12.5967 230.982 12.6807 231.028 12.774C231.075 12.858 231.098 12.9607 231.098 13.082C231.098 13.2967 231.014 13.4833 230.846 13.642C230.678 13.8007 230.408 13.88 230.034 13.88H228.172V15H230.496C231.234 15 231.761 14.832 232.078 14.496C232.405 14.1507 232.568 13.7353 232.568 13.25C232.568 12.83 232.466 12.5033 232.26 12.27C232.055 12.0367 231.775 11.8733 231.42 11.78C231.066 11.6867 230.664 11.64 230.216 11.64H228.172ZM228.172 11.92H230.076C230.478 11.92 230.842 11.864 231.168 11.752C231.504 11.6307 231.775 11.4533 231.98 11.22C232.186 10.9773 232.288 10.674 232.288 10.31C232.288 9.89 232.186 9.554 231.98 9.302C231.775 9.04067 231.504 8.854 231.168 8.742C230.842 8.62067 230.478 8.56 230.076 8.56H228.172V9.68H229.894C230.184 9.68 230.408 9.75 230.566 9.89C230.734 10.03 230.818 10.2073 230.818 10.422C230.818 10.5247 230.795 10.6227 230.748 10.716C230.711 10.8093 230.65 10.8933 230.566 10.968C230.492 11.0427 230.398 11.0987 230.286 11.136C230.174 11.1733 230.044 11.192 229.894 11.192H228.172V11.92ZM227.29 8.56V15H228.774V8.56H227.29ZM234.38 12.13H240.036C240.045 12.046 240.05 11.9713 240.05 11.906C240.05 11.8313 240.05 11.766 240.05 11.71C240.05 11.0287 239.919 10.4453 239.658 9.96C239.406 9.46533 239.037 9.08733 238.552 8.826C238.076 8.55533 237.502 8.42 236.83 8.42C236.223 8.42 235.687 8.532 235.22 8.756C234.753 8.98 234.375 9.29267 234.086 9.694C233.806 10.0953 233.619 10.562 233.526 11.094C233.507 11.206 233.493 11.318 233.484 11.43C233.475 11.542 233.47 11.6587 233.47 11.78C233.47 12.424 233.605 13.0027 233.876 13.516C234.147 14.02 234.529 14.4167 235.024 14.706C235.528 14.9953 236.107 15.14 236.76 15.14C237.348 15.14 237.838 15.07 238.23 14.93C238.631 14.7807 238.972 14.5753 239.252 14.314C239.532 14.0527 239.779 13.7447 239.994 13.39L238.678 12.872C238.557 13.0773 238.407 13.2593 238.23 13.418C238.053 13.5673 237.847 13.684 237.614 13.768C237.39 13.852 237.129 13.894 236.83 13.894C236.475 13.894 236.158 13.8193 235.878 13.67C235.607 13.5113 235.393 13.2733 235.234 12.956C235.085 12.6387 235.01 12.2467 235.01 11.78L235.038 11.388C235.038 11.0147 235.113 10.6927 235.262 10.422C235.421 10.142 235.635 9.932 235.906 9.792C236.177 9.64267 236.48 9.568 236.816 9.568C237.143 9.568 237.418 9.63333 237.642 9.764C237.866 9.88533 238.039 10.0627 238.16 10.296C238.291 10.52 238.375 10.7813 238.412 11.08H234.38V12.13ZM241.762 13.46L240.53 17.086L241.65 17.394L243.288 13.894L241.762 13.46ZM57.324 28.1C57.324 27.4 57.478 26.7933 57.786 26.28C58.1033 25.7573 58.514 25.356 59.018 25.076C59.522 24.7867 60.0727 24.642 60.67 24.642C61.1367 24.642 61.5567 24.7027 61.93 24.824C62.3127 24.9453 62.6533 25.1133 62.952 25.328C63.2507 25.5333 63.512 25.7667 63.736 26.028V24.068C63.3347 23.7227 62.8913 23.4613 62.406 23.284C61.93 23.1067 61.3327 23.018 60.614 23.018C59.8953 23.018 59.2233 23.144 58.598 23.396C57.982 23.6387 57.4453 23.9887 56.988 24.446C56.5307 24.894 56.1713 25.4307 55.91 26.056C55.658 26.672 55.532 27.3533 55.532 28.1C55.532 28.8373 55.658 29.5187 55.91 30.144C56.1713 30.76 56.5307 31.2967 56.988 31.754C57.4453 32.2113 57.982 32.5613 58.598 32.804C59.2233 33.0467 59.8953 33.168 60.614 33.168C61.3327 33.168 61.93 33.0793 62.406 32.902C62.8913 32.7247 63.3347 32.468 63.736 32.132V30.158C63.512 30.4287 63.2507 30.6713 62.952 30.886C62.6533 31.0913 62.3127 31.2547 61.93 31.376C61.5567 31.4973 61.1367 31.558 60.67 31.558C60.0727 31.558 59.522 31.4133 59.018 31.124C58.514 30.8347 58.1033 30.4333 57.786 29.92C57.478 29.3973 57.324 28.7907 57.324 28.1ZM66.5977 31.096C66.5977 30.872 66.6537 30.6807 66.7657 30.522C66.8777 30.354 67.041 30.228 67.2557 30.144C67.4704 30.0507 67.7364 30.004 68.0537 30.004C68.4457 30.004 68.791 30.0553 69.0897 30.158C69.3884 30.2513 69.6824 30.4053 69.9717 30.62V29.822C69.897 29.7287 69.7617 29.6213 69.5657 29.5C69.3697 29.3787 69.1224 29.2713 68.8237 29.178C68.5344 29.0847 68.203 29.038 67.8297 29.038C67.2697 29.038 66.7797 29.122 66.3597 29.29C65.949 29.458 65.6317 29.7007 65.4077 30.018C65.1837 30.3353 65.0717 30.7133 65.0717 31.152C65.0717 31.5907 65.1697 31.9593 65.3657 32.258C65.571 32.5473 65.8417 32.7667 66.1777 32.916C66.523 33.0653 66.9057 33.14 67.3257 33.14C67.7737 33.14 68.1797 33.0653 68.5437 32.916C68.9077 32.7573 69.197 32.5333 69.4117 32.244C69.6264 31.9453 69.7337 31.5907 69.7337 31.18L69.5097 30.438C69.5097 30.8207 69.435 31.124 69.2857 31.348C69.1364 31.572 68.931 31.7353 68.6697 31.838C68.4084 31.9407 68.1144 31.992 67.7877 31.992C67.573 31.992 67.3724 31.9593 67.1857 31.894C67.0084 31.8193 66.8637 31.7167 66.7517 31.586C66.649 31.4553 66.5977 31.292 66.5977 31.096ZM66.2757 28.254C66.3784 28.1887 66.523 28.1093 66.7097 28.016C66.9057 27.9133 67.1297 27.8247 67.3817 27.75C67.643 27.6753 67.9277 27.638 68.2357 27.638C68.5904 27.638 68.889 27.722 69.1317 27.89C69.3837 28.0487 69.5097 28.2773 69.5097 28.576V33H70.9937V28.408C70.9937 27.9787 70.877 27.6147 70.6437 27.316C70.4197 27.0173 70.107 26.7933 69.7057 26.644C69.3044 26.4853 68.8377 26.406 68.3057 26.406C67.727 26.406 67.2137 26.49 66.7657 26.658C66.3177 26.826 65.949 26.9987 65.6597 27.176L66.2757 28.254ZM73.4267 30.228H78.3547V28.968H73.4267V30.228ZM77.5427 26.56V33H79.0267V26.56H77.5427ZM72.7687 26.56V33H74.2527V26.56H72.7687ZM80.9022 26.56V33H82.3862V26.56H80.9022ZM84.7522 26.56L81.9802 29.22L85.0462 33H86.8942L83.8282 29.22L86.6142 26.56H84.7522ZM86.9938 26.56V27.89H91.0678V26.56H86.9938ZM88.2958 26.84V33H89.7798V26.84H88.2958ZM91.2048 30.354H94.0748V28.996H91.2048V30.354ZM101.675 24.726V33H103.355V23.2H95.2626V33H96.9426V24.726H101.675ZM105.865 30.13H111.521C111.53 30.046 111.535 29.9713 111.535 29.906C111.535 29.8313 111.535 29.766 111.535 29.71C111.535 29.0287 111.404 28.4453 111.143 27.96C110.891 27.4653 110.522 27.0873 110.037 26.826C109.561 26.5553 108.987 26.42 108.315 26.42C107.708 26.42 107.171 26.532 106.705 26.756C106.238 26.98 105.86 27.2927 105.571 27.694C105.291 28.0953 105.104 28.562 105.011 29.094C104.992 29.206 104.978 29.318 104.969 29.43C104.959 29.542 104.955 29.6587 104.955 29.78C104.955 30.424 105.09 31.0027 105.361 31.516C105.631 32.02 106.014 32.4167 106.509 32.706C107.013 32.9953 107.591 33.14 108.245 33.14C108.833 33.14 109.323 33.07 109.715 32.93C110.116 32.7807 110.457 32.5753 110.737 32.314C111.017 32.0527 111.264 31.7447 111.479 31.39L110.163 30.872C110.041 31.0773 109.892 31.2593 109.715 31.418C109.537 31.5673 109.332 31.684 109.099 31.768C108.875 31.852 108.613 31.894 108.315 31.894C107.96 31.894 107.643 31.8193 107.363 31.67C107.092 31.5113 106.877 31.2733 106.719 30.956C106.569 30.6387 106.495 30.2467 106.495 29.78L106.523 29.388C106.523 29.0147 106.597 28.6927 106.747 28.422C106.905 28.142 107.12 27.932 107.391 27.792C107.661 27.6427 107.965 27.568 108.301 27.568C108.627 27.568 108.903 27.6333 109.127 27.764C109.351 27.8853 109.523 28.0627 109.645 28.296C109.775 28.52 109.859 28.7813 109.897 29.08H105.865V30.13ZM112.095 26.56V27.89H116.169V26.56H112.095ZM113.397 26.84V33H114.881V26.84H113.397ZM117.417 30.13H123.073C123.083 30.046 123.087 29.9713 123.087 29.906C123.087 29.8313 123.087 29.766 123.087 29.71C123.087 29.0287 122.957 28.4453 122.695 27.96C122.443 27.4653 122.075 27.0873 121.589 26.826C121.113 26.5553 120.539 26.42 119.867 26.42C119.261 26.42 118.724 26.532 118.257 26.756C117.791 26.98 117.413 27.2927 117.123 27.694C116.843 28.0953 116.657 28.562 116.563 29.094C116.545 29.206 116.531 29.318 116.521 29.43C116.512 29.542 116.507 29.6587 116.507 29.78C116.507 30.424 116.643 31.0027 116.913 31.516C117.184 32.02 117.567 32.4167 118.061 32.706C118.565 32.9953 119.144 33.14 119.797 33.14C120.385 33.14 120.875 33.07 121.267 32.93C121.669 32.7807 122.009 32.5753 122.289 32.314C122.569 32.0527 122.817 31.7447 123.031 31.39L121.715 30.872C121.594 31.0773 121.445 31.2593 121.267 31.418C121.09 31.5673 120.885 31.684 120.651 31.768C120.427 31.852 120.166 31.894 119.867 31.894C119.513 31.894 119.195 31.8193 118.915 31.67C118.645 31.5113 118.43 31.2733 118.271 30.956C118.122 30.6387 118.047 30.2467 118.047 29.78L118.075 29.388C118.075 29.0147 118.15 28.6927 118.299 28.422C118.458 28.142 118.673 27.932 118.943 27.792C119.214 27.6427 119.517 27.568 119.853 27.568C120.18 27.568 120.455 27.6333 120.679 27.764C120.903 27.8853 121.076 28.0627 121.197 28.296C121.328 28.52 121.412 28.7813 121.449 29.08H117.417V30.13ZM126.014 36.08V26.56H124.488V36.08H126.014ZM131.348 29.78C131.348 29.052 131.203 28.4407 130.914 27.946C130.625 27.442 130.242 27.0547 129.766 26.784C129.29 26.5133 128.772 26.378 128.212 26.378C127.671 26.378 127.195 26.518 126.784 26.798C126.383 27.078 126.07 27.47 125.846 27.974C125.622 28.478 125.51 29.08 125.51 29.78C125.51 30.4707 125.622 31.0727 125.846 31.586C126.07 32.09 126.383 32.482 126.784 32.762C127.195 33.0327 127.671 33.168 128.212 33.168C128.772 33.168 129.29 33.0373 129.766 32.776C130.242 32.5053 130.625 32.118 130.914 31.614C131.203 31.1007 131.348 30.4893 131.348 29.78ZM129.78 29.78C129.78 30.2093 129.691 30.5733 129.514 30.872C129.337 31.1707 129.103 31.3993 128.814 31.558C128.525 31.7167 128.203 31.796 127.848 31.796C127.549 31.796 127.26 31.7213 126.98 31.572C126.7 31.4133 126.467 31.1847 126.28 30.886C126.103 30.5873 126.014 30.2187 126.014 29.78C126.014 29.3413 126.103 28.9727 126.28 28.674C126.467 28.3753 126.7 28.1513 126.98 28.002C127.26 27.8433 127.549 27.764 127.848 27.764C128.203 27.764 128.525 27.8433 128.814 28.002C129.103 28.1513 129.337 28.38 129.514 28.688C129.691 28.9867 129.78 29.3507 129.78 29.78ZM135.854 27.75C136.218 27.75 136.545 27.834 136.834 28.002C137.124 28.17 137.352 28.408 137.52 28.716C137.688 29.024 137.772 29.3787 137.772 29.78C137.772 30.1813 137.688 30.536 137.52 30.844C137.352 31.1427 137.124 31.3807 136.834 31.558C136.545 31.726 136.218 31.81 135.854 31.81C135.49 31.81 135.164 31.726 134.874 31.558C134.585 31.3807 134.352 31.1427 134.174 30.844C134.006 30.536 133.922 30.1813 133.922 29.78L132.312 28.94C132.312 29.864 132.466 30.6387 132.774 31.264C133.082 31.8893 133.502 32.3607 134.034 32.678C134.576 32.986 135.182 33.14 135.854 33.14C136.536 33.14 137.133 32.9953 137.646 32.706C138.169 32.4167 138.58 32.02 138.878 31.516C139.177 31.0027 139.326 30.424 139.326 29.78C139.326 29.1267 139.177 28.548 138.878 28.044C138.589 27.54 138.188 27.1433 137.674 26.854C137.17 26.5647 136.587 26.42 135.924 26.42L135.854 27.75ZM133.25 29.78H133.922C133.922 29.4533 133.978 29.164 134.09 28.912C134.212 28.66 134.366 28.45 134.552 28.282C134.739 28.1047 134.949 27.974 135.182 27.89C135.416 27.7967 135.64 27.75 135.854 27.75L135.924 26.42C135.523 26.42 135.159 26.4993 134.832 26.658C134.506 26.8073 134.221 27.0267 133.978 27.316C133.745 27.6053 133.563 27.96 133.432 28.38C133.311 28.7907 133.25 29.2573 133.25 29.78ZM132.312 28.94L133.782 29.71L133.642 28.24C133.642 27.7733 133.703 27.3207 133.824 26.882C133.955 26.434 134.179 26.0327 134.496 25.678C134.814 25.314 135.262 25.0293 135.84 24.824C136.354 24.6467 136.811 24.4273 137.212 24.166C137.623 23.8953 137.954 23.5827 138.206 23.228C138.458 22.8733 138.608 22.4907 138.654 22.08H137.184C137.119 22.416 136.923 22.724 136.596 23.004C136.27 23.284 135.789 23.5407 135.154 23.774C134.417 24.054 133.838 24.432 133.418 24.908C133.008 25.3747 132.718 25.944 132.55 26.616C132.392 27.288 132.312 28.0627 132.312 28.94ZM146.484 26.56H144.86L142.844 31.614L143.558 31.656L141.5 26.56H139.764L142.368 32.244L140.674 36.08H142.284L146.484 26.56ZM148.874 36.08V26.56H147.348V36.08H148.874ZM154.208 29.78C154.208 29.052 154.063 28.4407 153.774 27.946C153.484 27.442 153.102 27.0547 152.626 26.784C152.15 26.5133 151.632 26.378 151.072 26.378C150.53 26.378 150.054 26.518 149.644 26.798C149.242 27.078 148.93 27.47 148.706 27.974C148.482 28.478 148.37 29.08 148.37 29.78C148.37 30.4707 148.482 31.0727 148.706 31.586C148.93 32.09 149.242 32.482 149.644 32.762C150.054 33.0327 150.53 33.168 151.072 33.168C151.632 33.168 152.15 33.0373 152.626 32.776C153.102 32.5053 153.484 32.118 153.774 31.614C154.063 31.1007 154.208 30.4893 154.208 29.78ZM152.64 29.78C152.64 30.2093 152.551 30.5733 152.374 30.872C152.196 31.1707 151.963 31.3993 151.674 31.558C151.384 31.7167 151.062 31.796 150.708 31.796C150.409 31.796 150.12 31.7213 149.84 31.572C149.56 31.4133 149.326 31.1847 149.14 30.886C148.962 30.5873 148.874 30.2187 148.874 29.78C148.874 29.3413 148.962 28.9727 149.14 28.674C149.326 28.3753 149.56 28.1513 149.84 28.002C150.12 27.8433 150.409 27.764 150.708 27.764C151.062 27.764 151.384 27.8433 151.674 28.002C151.963 28.1513 152.196 28.38 152.374 28.688C152.551 28.9867 152.64 29.3507 152.64 29.78ZM155.704 26.56V33H157.202V27.89H159.414V26.56H155.704ZM160.634 30.13H166.29C166.299 30.046 166.304 29.9713 166.304 29.906C166.304 29.8313 166.304 29.766 166.304 29.71C166.304 29.0287 166.173 28.4453 165.912 27.96C165.66 27.4653 165.291 27.0873 164.806 26.826C164.33 26.5553 163.756 26.42 163.084 26.42C162.477 26.42 161.941 26.532 161.474 26.756C161.007 26.98 160.629 27.2927 160.34 27.694C160.06 28.0953 159.873 28.562 159.78 29.094C159.761 29.206 159.747 29.318 159.738 29.43C159.729 29.542 159.724 29.6587 159.724 29.78C159.724 30.424 159.859 31.0027 160.13 31.516C160.401 32.02 160.783 32.4167 161.278 32.706C161.782 32.9953 162.361 33.14 163.014 33.14C163.602 33.14 164.092 33.07 164.484 32.93C164.885 32.7807 165.226 32.5753 165.506 32.314C165.786 32.0527 166.033 31.7447 166.248 31.39L164.932 30.872C164.811 31.0773 164.661 31.2593 164.484 31.418C164.307 31.5673 164.101 31.684 163.868 31.768C163.644 31.852 163.383 31.894 163.084 31.894C162.729 31.894 162.412 31.8193 162.132 31.67C161.861 31.5113 161.647 31.2733 161.488 30.956C161.339 30.6387 161.264 30.2467 161.264 29.78L161.292 29.388C161.292 29.0147 161.367 28.6927 161.516 28.422C161.675 28.142 161.889 27.932 162.16 27.792C162.431 27.6427 162.734 27.568 163.07 27.568C163.397 27.568 163.672 27.6333 163.896 27.764C164.12 27.8853 164.293 28.0627 164.414 28.296C164.545 28.52 164.629 28.7813 164.666 29.08H160.634V30.13ZM177.796 27.96L177.866 26.07L172.084 31.6L172.014 33.49L177.796 27.96ZM173.498 26.56H172.014V33.49L173.498 31.768V26.56ZM177.866 26.07L176.382 27.778V33H177.866V26.07ZM184.184 23.2V33H185.878V23.2H184.184ZM189.518 23.2L185.388 27.834L189.686 33H191.73L187.376 27.792L191.52 23.2H189.518ZM194.196 36.08V26.56H192.67V36.08H194.196ZM199.53 29.78C199.53 29.052 199.385 28.4407 199.096 27.946C198.806 27.442 198.424 27.0547 197.948 26.784C197.472 26.5133 196.954 26.378 196.394 26.378C195.852 26.378 195.376 26.518 194.966 26.798C194.564 27.078 194.252 27.47 194.028 27.974C193.804 28.478 193.692 29.08 193.692 29.78C193.692 30.4707 193.804 31.0727 194.028 31.586C194.252 32.09 194.564 32.482 194.966 32.762C195.376 33.0327 195.852 33.168 196.394 33.168C196.954 33.168 197.472 33.0373 197.948 32.776C198.424 32.5053 198.806 32.118 199.096 31.614C199.385 31.1007 199.53 30.4893 199.53 29.78ZM197.962 29.78C197.962 30.2093 197.873 30.5733 197.696 30.872C197.518 31.1707 197.285 31.3993 196.996 31.558C196.706 31.7167 196.384 31.796 196.03 31.796C195.731 31.796 195.442 31.7213 195.162 31.572C194.882 31.4133 194.648 31.1847 194.462 30.886C194.284 30.5873 194.196 30.2187 194.196 29.78C194.196 29.3413 194.284 28.9727 194.462 28.674C194.648 28.3753 194.882 28.1513 195.162 28.002C195.442 27.8433 195.731 27.764 196.03 27.764C196.384 27.764 196.706 27.8433 196.996 28.002C197.285 28.1513 197.518 28.38 197.696 28.688C197.873 28.9867 197.962 29.3507 197.962 29.78ZM201.922 31.096C201.922 30.872 201.978 30.6807 202.09 30.522C202.202 30.354 202.365 30.228 202.58 30.144C202.795 30.0507 203.061 30.004 203.378 30.004C203.77 30.004 204.115 30.0553 204.414 30.158C204.713 30.2513 205.007 30.4053 205.296 30.62V29.822C205.221 29.7287 205.086 29.6213 204.89 29.5C204.694 29.3787 204.447 29.2713 204.148 29.178C203.859 29.0847 203.527 29.038 203.154 29.038C202.594 29.038 202.104 29.122 201.684 29.29C201.273 29.458 200.956 29.7007 200.732 30.018C200.508 30.3353 200.396 30.7133 200.396 31.152C200.396 31.5907 200.494 31.9593 200.69 32.258C200.895 32.5473 201.166 32.7667 201.502 32.916C201.847 33.0653 202.23 33.14 202.65 33.14C203.098 33.14 203.504 33.0653 203.868 32.916C204.232 32.7573 204.521 32.5333 204.736 32.244C204.951 31.9453 205.058 31.5907 205.058 31.18L204.834 30.438C204.834 30.8207 204.759 31.124 204.61 31.348C204.461 31.572 204.255 31.7353 203.994 31.838C203.733 31.9407 203.439 31.992 203.112 31.992C202.897 31.992 202.697 31.9593 202.51 31.894C202.333 31.8193 202.188 31.7167 202.076 31.586C201.973 31.4553 201.922 31.292 201.922 31.096ZM201.6 28.254C201.703 28.1887 201.847 28.1093 202.034 28.016C202.23 27.9133 202.454 27.8247 202.706 27.75C202.967 27.6753 203.252 27.638 203.56 27.638C203.915 27.638 204.213 27.722 204.456 27.89C204.708 28.0487 204.834 28.2773 204.834 28.576V33H206.318V28.408C206.318 27.9787 206.201 27.6147 205.968 27.316C205.744 27.0173 205.431 26.7933 205.03 26.644C204.629 26.4853 204.162 26.406 203.63 26.406C203.051 26.406 202.538 26.49 202.09 26.658C201.642 26.826 201.273 26.9987 200.984 27.176L201.6 28.254ZM209.101 29.78C209.101 29.3787 209.19 29.024 209.367 28.716C209.544 28.408 209.782 28.1653 210.081 27.988C210.389 27.8107 210.73 27.722 211.103 27.722C211.402 27.722 211.691 27.7687 211.971 27.862C212.251 27.9553 212.498 28.086 212.713 28.254C212.937 28.4127 213.1 28.5993 213.203 28.814V27.134C212.979 26.9193 212.676 26.7467 212.293 26.616C211.91 26.4853 211.49 26.42 211.033 26.42C210.38 26.42 209.787 26.5647 209.255 26.854C208.732 27.134 208.317 27.526 208.009 28.03C207.701 28.534 207.547 29.1173 207.547 29.78C207.547 30.4333 207.701 31.0167 208.009 31.53C208.317 32.034 208.732 32.4307 209.255 32.72C209.787 33 210.38 33.14 211.033 33.14C211.49 33.14 211.91 33.0747 212.293 32.944C212.676 32.8133 212.979 32.636 213.203 32.412V30.746C213.1 30.9513 212.942 31.138 212.727 31.306C212.512 31.4647 212.265 31.5953 211.985 31.698C211.714 31.7913 211.42 31.838 211.103 31.838C210.73 31.838 210.389 31.7493 210.081 31.572C209.782 31.3947 209.544 31.152 209.367 30.844C209.19 30.536 209.101 30.1813 209.101 29.78ZM215.532 30.228H220.46V28.968H215.532V30.228ZM219.648 26.56V33H221.132V26.56H219.648ZM214.874 26.56V33H216.358V26.56H214.874ZM222.574 29.78C222.574 30.4333 222.723 31.0167 223.022 31.53C223.33 32.034 223.745 32.4307 224.268 32.72C224.8 33 225.392 33.14 226.046 33.14C226.708 33.14 227.301 33 227.824 32.72C228.346 32.4307 228.757 32.034 229.056 31.53C229.364 31.0167 229.518 30.4333 229.518 29.78C229.518 29.1173 229.364 28.534 229.056 28.03C228.757 27.526 228.346 27.134 227.824 26.854C227.301 26.5647 226.708 26.42 226.046 26.42C225.392 26.42 224.8 26.5647 224.268 26.854C223.745 27.134 223.33 27.526 223.022 28.03C222.723 28.534 222.574 29.1173 222.574 29.78ZM224.128 29.78C224.128 29.3787 224.212 29.024 224.38 28.716C224.548 28.408 224.776 28.17 225.066 28.002C225.355 27.834 225.682 27.75 226.046 27.75C226.41 27.75 226.736 27.834 227.026 28.002C227.315 28.17 227.544 28.408 227.712 28.716C227.88 29.024 227.964 29.3787 227.964 29.78C227.964 30.1813 227.88 30.536 227.712 30.844C227.544 31.1427 227.315 31.3807 227.026 31.558C226.736 31.726 226.41 31.81 226.046 31.81C225.682 31.81 225.355 31.726 225.066 31.558C224.776 31.3807 224.548 31.1427 224.38 30.844C224.212 30.536 224.128 30.1813 224.128 29.78ZM233.993 28.73L235.743 32.58L237.325 32.398L233.993 26.07L230.675 32.398L232.243 32.58L233.993 28.73ZM236.653 33V34.26H238.123V31.698H229.863V34.26H231.403V33H236.653ZM240.668 31.096C240.668 30.872 240.724 30.6807 240.836 30.522C240.948 30.354 241.111 30.228 241.326 30.144C241.541 30.0507 241.807 30.004 242.124 30.004C242.516 30.004 242.861 30.0553 243.16 30.158C243.459 30.2513 243.753 30.4053 244.042 30.62V29.822C243.967 29.7287 243.832 29.6213 243.636 29.5C243.44 29.3787 243.193 29.2713 242.894 29.178C242.605 29.0847 242.273 29.038 241.9 29.038C241.34 29.038 240.85 29.122 240.43 29.29C240.019 29.458 239.702 29.7007 239.478 30.018C239.254 30.3353 239.142 30.7133 239.142 31.152C239.142 31.5907 239.24 31.9593 239.436 32.258C239.641 32.5473 239.912 32.7667 240.248 32.916C240.593 33.0653 240.976 33.14 241.396 33.14C241.844 33.14 242.25 33.0653 242.614 32.916C242.978 32.7573 243.267 32.5333 243.482 32.244C243.697 31.9453 243.804 31.5907 243.804 31.18L243.58 30.438C243.58 30.8207 243.505 31.124 243.356 31.348C243.207 31.572 243.001 31.7353 242.74 31.838C242.479 31.9407 242.185 31.992 241.858 31.992C241.643 31.992 241.443 31.9593 241.256 31.894C241.079 31.8193 240.934 31.7167 240.822 31.586C240.719 31.4553 240.668 31.292 240.668 31.096ZM240.346 28.254C240.449 28.1887 240.593 28.1093 240.78 28.016C240.976 27.9133 241.2 27.8247 241.452 27.75C241.713 27.6753 241.998 27.638 242.306 27.638C242.661 27.638 242.959 27.722 243.202 27.89C243.454 28.0487 243.58 28.2773 243.58 28.576V33H245.064V28.408C245.064 27.9787 244.947 27.6147 244.714 27.316C244.49 27.0173 244.177 26.7933 243.776 26.644C243.375 26.4853 242.908 26.406 242.376 26.406C241.797 26.406 241.284 26.49 240.836 26.658C240.388 26.826 240.019 26.9987 239.73 27.176L240.346 28.254ZM248.309 36.08V26.56H246.783V36.08H248.309ZM253.643 29.78C253.643 29.052 253.498 28.4407 253.209 27.946C252.92 27.442 252.537 27.0547 252.061 26.784C251.585 26.5133 251.067 26.378 250.507 26.378C249.966 26.378 249.49 26.518 249.079 26.798C248.678 27.078 248.365 27.47 248.141 27.974C247.917 28.478 247.805 29.08 247.805 29.78C247.805 30.4707 247.917 31.0727 248.141 31.586C248.365 32.09 248.678 32.482 249.079 32.762C249.49 33.0327 249.966 33.168 250.507 33.168C251.067 33.168 251.585 33.0373 252.061 32.776C252.537 32.5053 252.92 32.118 253.209 31.614C253.498 31.1007 253.643 30.4893 253.643 29.78ZM252.075 29.78C252.075 30.2093 251.986 30.5733 251.809 30.872C251.632 31.1707 251.398 31.3993 251.109 31.558C250.82 31.7167 250.498 31.796 250.143 31.796C249.844 31.796 249.555 31.7213 249.275 31.572C248.995 31.4133 248.762 31.1847 248.575 30.886C248.398 30.5873 248.309 30.2187 248.309 29.78C248.309 29.3413 248.398 28.9727 248.575 28.674C248.762 28.3753 248.995 28.1513 249.275 28.002C249.555 27.8433 249.844 27.764 250.143 27.764C250.498 27.764 250.82 27.8433 251.109 28.002C251.398 28.1513 251.632 28.38 251.809 28.688C251.986 28.9867 252.075 29.3507 252.075 29.78ZM255.503 30.13H261.159C261.169 30.046 261.173 29.9713 261.173 29.906C261.173 29.8313 261.173 29.766 261.173 29.71C261.173 29.0287 261.043 28.4453 260.781 27.96C260.529 27.4653 260.161 27.0873 259.675 26.826C259.199 26.5553 258.625 26.42 257.953 26.42C257.347 26.42 256.81 26.532 256.343 26.756C255.877 26.98 255.499 27.2927 255.209 27.694C254.929 28.0953 254.743 28.562 254.649 29.094C254.631 29.206 254.617 29.318 254.607 29.43C254.598 29.542 254.593 29.6587 254.593 29.78C254.593 30.424 254.729 31.0027 254.999 31.516C255.27 32.02 255.653 32.4167 256.147 32.706C256.651 32.9953 257.23 33.14 257.883 33.14C258.471 33.14 258.961 33.07 259.353 32.93C259.755 32.7807 260.095 32.5753 260.375 32.314C260.655 32.0527 260.903 31.7447 261.117 31.39L259.801 30.872C259.68 31.0773 259.531 31.2593 259.353 31.418C259.176 31.5673 258.971 31.684 258.737 31.768C258.513 31.852 258.252 31.894 257.953 31.894C257.599 31.894 257.281 31.8193 257.001 31.67C256.731 31.5113 256.516 31.2733 256.357 30.956C256.208 30.6387 256.133 30.2467 256.133 29.78L256.161 29.388C256.161 29.0147 256.236 28.6927 256.385 28.422C256.544 28.142 256.759 27.932 257.029 27.792C257.3 27.6427 257.603 27.568 257.939 27.568C258.266 27.568 258.541 27.6333 258.765 27.764C258.989 27.8853 259.162 28.0627 259.283 28.296C259.414 28.52 259.498 28.7813 259.535 29.08H255.503V30.13Z" fill="white"/>
<rect width="40" height="40" rx="5" fill="white" fill-opacity="0.2"/>
<path d="M24.7441 13.9647C23.4772 12.6978 21.7926 12 20.0009 12C18.2092 12 16.5247 12.6977 15.2577 13.9647C13.9907 15.2317 13.293 16.9161 13.293 18.7078C13.293 20.4996 13.9907 22.1841 15.2577 23.451L19.6695 27.8627C19.761 27.9543 19.881 28 20.0009 28C20.1209 28 20.2409 27.9542 20.3324 27.8627L24.744 23.4511C26.011 22.1841 26.7087 20.4996 26.7088 18.7079C26.7087 16.9161 26.0111 15.2316 24.7441 13.9647ZM22.1076 20.8144C21.5449 21.3771 20.7967 21.687 20.001 21.687C19.2052 21.687 18.4571 21.3771 17.8944 20.8144C17.3317 20.2518 17.0218 19.5036 17.0218 18.7078C17.0218 17.9121 17.3317 17.164 17.8944 16.6012C18.4571 16.0385 19.2052 15.7287 20.001 15.7287C20.7967 15.7287 21.5449 16.0385 22.1076 16.6012C22.6703 17.1639 22.9802 17.912 22.9802 18.7078C22.9801 19.5036 22.6702 20.2518 22.1076 20.8144Z" fill="white"/>
<path d="M359.12 5.2V15H360.786V6.726H364.356V5.2H359.12ZM365.018 13.096C365.018 12.872 365.074 12.6807 365.186 12.522C365.298 12.354 365.461 12.228 365.676 12.144C365.89 12.0507 366.156 12.004 366.474 12.004C366.866 12.004 367.211 12.0553 367.51 12.158C367.808 12.2513 368.102 12.4053 368.392 12.62V11.822C368.317 11.7287 368.182 11.6213 367.986 11.5C367.79 11.3787 367.542 11.2713 367.244 11.178C366.954 11.0847 366.623 11.038 366.25 11.038C365.69 11.038 365.2 11.122 364.78 11.29C364.369 11.458 364.052 11.7007 363.828 12.018C363.604 12.3353 363.492 12.7133 363.492 13.152C363.492 13.5907 363.59 13.9593 363.786 14.258C363.991 14.5473 364.262 14.7667 364.598 14.916C364.943 15.0653 365.326 15.14 365.746 15.14C366.194 15.14 366.6 15.0653 366.964 14.916C367.328 14.7573 367.617 14.5333 367.832 14.244C368.046 13.9453 368.154 13.5907 368.154 13.18L367.93 12.438C367.93 12.8207 367.855 13.124 367.706 13.348C367.556 13.572 367.351 13.7353 367.09 13.838C366.828 13.9407 366.534 13.992 366.208 13.992C365.993 13.992 365.792 13.9593 365.606 13.894C365.428 13.8193 365.284 13.7167 365.172 13.586C365.069 13.4553 365.018 13.292 365.018 13.096ZM364.696 10.254C364.798 10.1887 364.943 10.1093 365.13 10.016C365.326 9.91333 365.55 9.82467 365.802 9.75C366.063 9.67533 366.348 9.638 366.656 9.638C367.01 9.638 367.309 9.722 367.552 9.89C367.804 10.0487 367.93 10.2773 367.93 10.576V15H369.414V10.408C369.414 9.97867 369.297 9.61467 369.064 9.316C368.84 9.01733 368.527 8.79333 368.126 8.644C367.724 8.48533 367.258 8.406 366.726 8.406C366.147 8.406 365.634 8.49 365.186 8.658C364.738 8.826 364.369 8.99867 364.08 9.176L364.696 10.254ZM372.659 18.08V8.56H371.133V18.08H372.659ZM377.993 11.78C377.993 11.052 377.848 10.4407 377.559 9.946C377.269 9.442 376.887 9.05467 376.411 8.784C375.935 8.51333 375.417 8.378 374.857 8.378C374.315 8.378 373.839 8.518 373.429 8.798C373.027 9.078 372.715 9.47 372.491 9.974C372.267 10.478 372.155 11.08 372.155 11.78C372.155 12.4707 372.267 13.0727 372.491 13.586C372.715 14.09 373.027 14.482 373.429 14.762C373.839 15.0327 374.315 15.168 374.857 15.168C375.417 15.168 375.935 15.0373 376.411 14.776C376.887 14.5053 377.269 14.118 377.559 13.614C377.848 13.1007 377.993 12.4893 377.993 11.78ZM376.425 11.78C376.425 12.2093 376.336 12.5733 376.159 12.872C375.981 13.1707 375.748 13.3993 375.459 13.558C375.169 13.7167 374.847 13.796 374.493 13.796C374.194 13.796 373.905 13.7213 373.625 13.572C373.345 13.4133 373.111 13.1847 372.925 12.886C372.747 12.5873 372.659 12.2187 372.659 11.78C372.659 11.3413 372.747 10.9727 372.925 10.674C373.111 10.3753 373.345 10.1513 373.625 10.002C373.905 9.84333 374.194 9.764 374.493 9.764C374.847 9.764 375.169 9.84333 375.459 10.002C375.748 10.1513 375.981 10.38 376.159 10.688C376.336 10.9867 376.425 11.3507 376.425 11.78ZM380.385 13.096C380.385 12.872 380.441 12.6807 380.553 12.522C380.665 12.354 380.828 12.228 381.043 12.144C381.257 12.0507 381.523 12.004 381.841 12.004C382.233 12.004 382.578 12.0553 382.877 12.158C383.175 12.2513 383.469 12.4053 383.759 12.62V11.822C383.684 11.7287 383.549 11.6213 383.353 11.5C383.157 11.3787 382.909 11.2713 382.611 11.178C382.321 11.0847 381.99 11.038 381.617 11.038C381.057 11.038 380.567 11.122 380.147 11.29C379.736 11.458 379.419 11.7007 379.195 12.018C378.971 12.3353 378.859 12.7133 378.859 13.152C378.859 13.5907 378.957 13.9593 379.153 14.258C379.358 14.5473 379.629 14.7667 379.965 14.916C380.31 15.0653 380.693 15.14 381.113 15.14C381.561 15.14 381.967 15.0653 382.331 14.916C382.695 14.7573 382.984 14.5333 383.199 14.244C383.413 13.9453 383.521 13.5907 383.521 13.18L383.297 12.438C383.297 12.8207 383.222 13.124 383.073 13.348C382.923 13.572 382.718 13.7353 382.457 13.838C382.195 13.9407 381.901 13.992 381.575 13.992C381.36 13.992 381.159 13.9593 380.973 13.894C380.795 13.8193 380.651 13.7167 380.539 13.586C380.436 13.4553 380.385 13.292 380.385 13.096ZM380.063 10.254C380.165 10.1887 380.31 10.1093 380.497 10.016C380.693 9.91333 380.917 9.82467 381.169 9.75C381.43 9.67533 381.715 9.638 382.023 9.638C382.377 9.638 382.676 9.722 382.919 9.89C383.171 10.0487 383.297 10.2773 383.297 10.576V15H384.781V10.408C384.781 9.97867 384.664 9.61467 384.431 9.316C384.207 9.01733 383.894 8.79333 383.493 8.644C383.091 8.48533 382.625 8.406 382.093 8.406C381.514 8.406 381.001 8.49 380.553 8.658C380.105 8.826 379.736 8.99867 379.447 9.176L380.063 10.254ZM387.214 12.228H392.142V10.968H387.214V12.228ZM391.33 8.56V15H392.814V8.56H391.33ZM386.556 8.56V15H388.04V8.56H386.556ZM393.849 8.56V9.89H397.923V8.56H393.849ZM395.151 8.84V15H396.635V8.84H395.151ZM404.794 9.96L404.864 8.07L399.082 13.6L399.012 15.49L404.794 9.96ZM400.496 8.56H399.012V15.49L400.496 13.768V8.56ZM404.864 8.07L403.38 9.778V15H404.864V8.07ZM408.189 15L410.317 11.808H408.777L406.565 15H408.189ZM412.361 15V8.56H410.835V15H412.361ZM411.409 11.374H409.519C409.285 11.374 409.089 11.346 408.931 11.29C408.772 11.234 408.651 11.15 408.567 11.038C408.492 10.926 408.455 10.7767 408.455 10.59C408.455 10.4127 408.492 10.268 408.567 10.156C408.651 10.044 408.772 9.96 408.931 9.904C409.089 9.848 409.285 9.82 409.519 9.82H411.409V8.56H409.407C408.968 8.56 408.557 8.62533 408.175 8.756C407.801 8.88667 407.503 9.09667 407.279 9.386C407.055 9.666 406.943 10.044 406.943 10.52C406.943 10.996 407.055 11.3833 407.279 11.682C407.503 11.9713 407.801 12.186 408.175 12.326C408.557 12.4567 408.968 12.522 409.407 12.522H411.409V11.374ZM418.249 7.496L420.531 6.866V15H422.155V5.046L418.249 5.928V7.496ZM424.082 13.124H432.146V11.696H430.144L429.906 11.808H426.504L429.024 8.154V12.382L428.912 12.536V15H430.606V5.2H429.612L424.082 13.124ZM441.522 10.73L443.272 14.58L444.854 14.398L441.522 8.07L438.204 14.398L439.772 14.58L441.522 10.73ZM444.182 15V16.26H445.652V13.698H437.392V16.26H438.932V15H444.182ZM447.903 12.228H452.831V10.968H447.903V12.228ZM452.019 8.56V15H453.503V8.56H452.019ZM447.245 8.56V15H448.729V8.56H447.245ZM455.855 12.13H461.511C461.52 12.046 461.525 11.9713 461.525 11.906C461.525 11.8313 461.525 11.766 461.525 11.71C461.525 11.0287 461.394 10.4453 461.133 9.96C460.881 9.46533 460.512 9.08733 460.027 8.826C459.551 8.55533 458.977 8.42 458.305 8.42C457.698 8.42 457.161 8.532 456.695 8.756C456.228 8.98 455.85 9.29267 455.561 9.694C455.281 10.0953 455.094 10.562 455.001 11.094C454.982 11.206 454.968 11.318 454.959 11.43C454.949 11.542 454.945 11.6587 454.945 11.78C454.945 12.424 455.08 13.0027 455.351 13.516C455.621 14.02 456.004 14.4167 456.499 14.706C457.003 14.9953 457.581 15.14 458.235 15.14C458.823 15.14 459.313 15.07 459.705 14.93C460.106 14.7807 460.447 14.5753 460.727 14.314C461.007 14.0527 461.254 13.7447 461.469 13.39L460.153 12.872C460.031 13.0773 459.882 13.2593 459.705 13.418C459.527 13.5673 459.322 13.684 459.089 13.768C458.865 13.852 458.603 13.894 458.305 13.894C457.95 13.894 457.633 13.8193 457.353 13.67C457.082 13.5113 456.867 13.2733 456.709 12.956C456.559 12.6387 456.485 12.2467 456.485 11.78L456.513 11.388C456.513 11.0147 456.587 10.6927 456.737 10.422C456.895 10.142 457.11 9.932 457.381 9.792C457.651 9.64267 457.955 9.568 458.291 9.568C458.617 9.568 458.893 9.63333 459.117 9.764C459.341 9.88533 459.513 10.0627 459.635 10.296C459.765 10.52 459.849 10.7813 459.887 11.08H455.855V12.13ZM468.82 9.96L468.89 8.07L463.108 13.6L463.038 15.49L468.82 9.96ZM464.522 8.56H463.038V15.49L464.522 13.768V8.56ZM468.89 8.07L467.406 9.778V15H468.89V8.07ZM463.78 5.27C463.78 5.606 463.864 5.928 464.032 6.236C464.2 6.544 464.452 6.79133 464.788 6.978C465.124 7.16467 465.534 7.258 466.02 7.258C466.514 7.258 466.93 7.16467 467.266 6.978C467.602 6.79133 467.854 6.544 468.022 6.236C468.19 5.928 468.274 5.606 468.274 5.27H467.126C467.126 5.41 467.088 5.55467 467.014 5.704C466.948 5.844 466.832 5.97 466.664 6.082C466.505 6.18467 466.29 6.236 466.02 6.236C465.758 6.236 465.544 6.18467 465.376 6.082C465.217 5.97 465.1 5.844 465.026 5.704C464.96 5.55467 464.928 5.41 464.928 5.27H463.78ZM359.624 30.228H364.552V28.968H359.624V30.228ZM363.74 26.56V33H365.224V26.56H363.74ZM358.966 26.56V33H360.45V26.56H358.966ZM368.107 31.096C368.107 30.872 368.163 30.6807 368.275 30.522C368.387 30.354 368.551 30.228 368.765 30.144C368.98 30.0507 369.246 30.004 369.563 30.004C369.955 30.004 370.301 30.0553 370.599 30.158C370.898 30.2513 371.192 30.4053 371.481 30.62V29.822C371.407 29.7287 371.271 29.6213 371.075 29.5C370.879 29.3787 370.632 29.2713 370.333 29.178C370.044 29.0847 369.713 29.038 369.339 29.038C368.779 29.038 368.289 29.122 367.869 29.29C367.459 29.458 367.141 29.7007 366.917 30.018C366.693 30.3353 366.581 30.7133 366.581 31.152C366.581 31.5907 366.679 31.9593 366.875 32.258C367.081 32.5473 367.351 32.7667 367.687 32.916C368.033 33.0653 368.415 33.14 368.835 33.14C369.283 33.14 369.689 33.0653 370.053 32.916C370.417 32.7573 370.707 32.5333 370.921 32.244C371.136 31.9453 371.243 31.5907 371.243 31.18L371.019 30.438C371.019 30.8207 370.945 31.124 370.795 31.348C370.646 31.572 370.441 31.7353 370.179 31.838C369.918 31.9407 369.624 31.992 369.297 31.992C369.083 31.992 368.882 31.9593 368.695 31.894C368.518 31.8193 368.373 31.7167 368.261 31.586C368.159 31.4553 368.107 31.292 368.107 31.096ZM367.785 28.254C367.888 28.1887 368.033 28.1093 368.219 28.016C368.415 27.9133 368.639 27.8247 368.891 27.75C369.153 27.6753 369.437 27.638 369.745 27.638C370.1 27.638 370.399 27.722 370.641 27.89C370.893 28.0487 371.019 28.2773 371.019 28.576V33H372.503V28.408C372.503 27.9787 372.387 27.6147 372.153 27.316C371.929 27.0173 371.617 26.7933 371.215 26.644C370.814 26.4853 370.347 26.406 369.815 26.406C369.237 26.406 368.723 26.49 368.275 26.658C367.827 26.826 367.459 26.9987 367.169 27.176L367.785 28.254ZM379.946 36.08V26.56H378.42V36.08H379.946ZM385.28 29.78C385.28 29.052 385.135 28.4407 384.846 27.946C384.556 27.442 384.174 27.0547 383.698 26.784C383.222 26.5133 382.704 26.378 382.144 26.378C381.602 26.378 381.126 26.518 380.716 26.798C380.314 27.078 380.002 27.47 379.778 27.974C379.554 28.478 379.442 29.08 379.442 29.78C379.442 30.4707 379.554 31.0727 379.778 31.586C380.002 32.09 380.314 32.482 380.716 32.762C381.126 33.0327 381.602 33.168 382.144 33.168C382.704 33.168 383.222 33.0373 383.698 32.776C384.174 32.5053 384.556 32.118 384.846 31.614C385.135 31.1007 385.28 30.4893 385.28 29.78ZM383.712 29.78C383.712 30.2093 383.623 30.5733 383.446 30.872C383.268 31.1707 383.035 31.3993 382.746 31.558C382.456 31.7167 382.134 31.796 381.78 31.796C381.481 31.796 381.192 31.7213 380.912 31.572C380.632 31.4133 380.398 31.1847 380.212 30.886C380.034 30.5873 379.946 30.2187 379.946 29.78C379.946 29.3413 380.034 28.9727 380.212 28.674C380.398 28.3753 380.632 28.1513 380.912 28.002C381.192 27.8433 381.481 27.764 381.78 27.764C382.134 27.764 382.456 27.8433 382.746 28.002C383.035 28.1513 383.268 28.38 383.446 28.688C383.623 28.9867 383.712 29.3507 383.712 29.78ZM387.14 30.13H392.796C392.805 30.046 392.81 29.9713 392.81 29.906C392.81 29.8313 392.81 29.766 392.81 29.71C392.81 29.0287 392.679 28.4453 392.418 27.96C392.166 27.4653 391.797 27.0873 391.312 26.826C390.836 26.5553 390.262 26.42 389.59 26.42C388.983 26.42 388.447 26.532 387.98 26.756C387.513 26.98 387.135 27.2927 386.846 27.694C386.566 28.0953 386.379 28.562 386.286 29.094C386.267 29.206 386.253 29.318 386.244 29.43C386.235 29.542 386.23 29.6587 386.23 29.78C386.23 30.424 386.365 31.0027 386.636 31.516C386.907 32.02 387.289 32.4167 387.784 32.706C388.288 32.9953 388.867 33.14 389.52 33.14C390.108 33.14 390.598 33.07 390.99 32.93C391.391 32.7807 391.732 32.5753 392.012 32.314C392.292 32.0527 392.539 31.7447 392.754 31.39L391.438 30.872C391.317 31.0773 391.167 31.2593 390.99 31.418C390.813 31.5673 390.607 31.684 390.374 31.768C390.15 31.852 389.889 31.894 389.59 31.894C389.235 31.894 388.918 31.8193 388.638 31.67C388.367 31.5113 388.153 31.2733 387.994 30.956C387.845 30.6387 387.77 30.2467 387.77 29.78L387.798 29.388C387.798 29.0147 387.873 28.6927 388.022 28.422C388.181 28.142 388.395 27.932 388.666 27.792C388.937 27.6427 389.24 27.568 389.576 27.568C389.903 27.568 390.178 27.6333 390.402 27.764C390.626 27.8853 390.799 28.0627 390.92 28.296C391.051 28.52 391.135 28.7813 391.172 29.08H387.14V30.13ZM400.399 33H402.009L400.231 26.07L399.419 28.17L400.399 33ZM397.249 31.684L397.669 33.434L400.371 28.548L400.231 26.07L397.249 31.684ZM397.669 33.434L398.089 31.684L395.163 26.07L395.023 28.548L397.669 33.434ZM393.371 33H394.981L395.961 28.17L395.163 26.07L393.371 33ZM402.554 29.78C402.554 30.4333 402.703 31.0167 403.002 31.53C403.31 32.034 403.725 32.4307 404.248 32.72C404.78 33 405.373 33.14 406.026 33.14C406.689 33.14 407.281 33 407.804 32.72C408.327 32.4307 408.737 32.034 409.036 31.53C409.344 31.0167 409.498 30.4333 409.498 29.78C409.498 29.1173 409.344 28.534 409.036 28.03C408.737 27.526 408.327 27.134 407.804 26.854C407.281 26.5647 406.689 26.42 406.026 26.42C405.373 26.42 404.78 26.5647 404.248 26.854C403.725 27.134 403.31 27.526 403.002 28.03C402.703 28.534 402.554 29.1173 402.554 29.78ZM404.108 29.78C404.108 29.3787 404.192 29.024 404.36 28.716C404.528 28.408 404.757 28.17 405.046 28.002C405.335 27.834 405.662 27.75 406.026 27.75C406.39 27.75 406.717 27.834 407.006 28.002C407.295 28.17 407.524 28.408 407.692 28.716C407.86 29.024 407.944 29.3787 407.944 29.78C407.944 30.1813 407.86 30.536 407.692 30.844C407.524 31.1427 407.295 31.3807 407.006 31.558C406.717 31.726 406.39 31.81 406.026 31.81C405.662 31.81 405.335 31.726 405.046 31.558C404.757 31.3807 404.528 31.1427 404.36 30.844C404.192 30.536 404.108 30.1813 404.108 29.78ZM411.604 30.228H416.532V28.968H411.604V30.228ZM415.72 26.56V33H417.204V26.56H415.72ZM410.946 26.56V33H412.43V26.56H410.946ZM418.24 26.56V27.89H422.314V26.56H418.24ZM419.542 26.84V33H421.026V26.84H419.542Z" fill="white"/>
<rect x="303" width="40" height="40" rx="5" fill="white" fill-opacity="0.2"/>
<path d="M329.715 16.1184C329.695 15.6975 329.695 15.2957 329.695 14.8939C329.695 14.5686 329.447 14.3199 329.121 14.3199C326.73 14.3199 324.912 13.6311 323.401 12.1578C323.171 11.9474 322.827 11.9474 322.597 12.1578C321.086 13.6311 319.268 14.3199 316.876 14.3199C316.551 14.3199 316.302 14.5686 316.302 14.8939C316.302 15.2957 316.302 15.6975 316.283 16.1184C316.207 20.1363 316.092 25.6466 322.807 27.9617L322.999 28L323.19 27.9617C329.887 25.6466 329.791 20.1555 329.715 16.1184ZM322.54 21.6861C322.425 21.7818 322.291 21.8392 322.138 21.8392H322.119C321.966 21.8392 321.813 21.7626 321.717 21.6478L319.938 19.6771L320.799 18.9118L322.195 20.4616L325.295 17.5151L326.079 18.357L322.54 21.6861Z" fill="white"/>
<path d="M562.352 9.946H564.046C564.671 9.946 565.217 9.85733 565.684 9.68C566.151 9.50267 566.515 9.246 566.776 8.91C567.047 8.56467 567.182 8.14933 567.182 7.664C567.182 7.104 567.047 6.642 566.776 6.278C566.515 5.914 566.151 5.64333 565.684 5.466C565.217 5.28867 564.671 5.2 564.046 5.2H561.092V15H564.214C564.914 15 565.525 14.902 566.048 14.706C566.58 14.5007 566.995 14.188 567.294 13.768C567.593 13.348 567.742 12.816 567.742 12.172C567.742 11.7053 567.649 11.304 567.462 10.968C567.275 10.632 567.019 10.3567 566.692 10.142C566.365 9.92733 565.987 9.76867 565.558 9.666C565.138 9.554 564.69 9.498 564.214 9.498H562.352V10.422H564.116C564.396 10.422 564.653 10.4547 564.886 10.52C565.119 10.576 565.325 10.674 565.502 10.814C565.679 10.9447 565.815 11.108 565.908 11.304C566.001 11.5 566.048 11.7333 566.048 12.004C566.048 12.368 565.964 12.6713 565.796 12.914C565.628 13.1473 565.399 13.3247 565.11 13.446C564.821 13.5673 564.489 13.628 564.116 13.628H562.744V6.558H563.934C564.401 6.558 564.774 6.67 565.054 6.894C565.343 7.118 565.488 7.43533 565.488 7.846C565.488 8.11667 565.423 8.35 565.292 8.546C565.161 8.73267 564.979 8.87733 564.746 8.98C564.513 9.08267 564.242 9.134 563.934 9.134H562.352V9.946ZM570.382 11.78C570.382 11.3787 570.471 11.024 570.648 10.716C570.826 10.408 571.064 10.1653 571.362 9.988C571.67 9.81067 572.011 9.722 572.384 9.722C572.683 9.722 572.972 9.76867 573.252 9.862C573.532 9.95533 573.78 10.086 573.994 10.254C574.218 10.4127 574.382 10.5993 574.484 10.814V9.134C574.26 8.91933 573.957 8.74667 573.574 8.616C573.192 8.48533 572.772 8.42 572.314 8.42C571.661 8.42 571.068 8.56467 570.536 8.854C570.014 9.134 569.598 9.526 569.29 10.03C568.982 10.534 568.828 11.1173 568.828 11.78C568.828 12.4333 568.982 13.0167 569.29 13.53C569.598 14.034 570.014 14.4307 570.536 14.72C571.068 15 571.661 15.14 572.314 15.14C572.772 15.14 573.192 15.0747 573.574 14.944C573.957 14.8133 574.26 14.636 574.484 14.412V12.746C574.382 12.9513 574.223 13.138 574.008 13.306C573.794 13.4647 573.546 13.5953 573.266 13.698C572.996 13.7913 572.702 13.838 572.384 13.838C572.011 13.838 571.67 13.7493 571.362 13.572C571.064 13.3947 570.826 13.152 570.648 12.844C570.471 12.536 570.382 12.1813 570.382 11.78ZM576.575 12.13H582.231C582.241 12.046 582.245 11.9713 582.245 11.906C582.245 11.8313 582.245 11.766 582.245 11.71C582.245 11.0287 582.115 10.4453 581.853 9.96C581.601 9.46533 581.233 9.08733 580.747 8.826C580.271 8.55533 579.697 8.42 579.025 8.42C578.419 8.42 577.882 8.532 577.415 8.756C576.949 8.98 576.571 9.29267 576.281 9.694C576.001 10.0953 575.815 10.562 575.721 11.094C575.703 11.206 575.689 11.318 575.679 11.43C575.67 11.542 575.665 11.6587 575.665 11.78C575.665 12.424 575.801 13.0027 576.071 13.516C576.342 14.02 576.725 14.4167 577.219 14.706C577.723 14.9953 578.302 15.14 578.955 15.14C579.543 15.14 580.033 15.07 580.425 14.93C580.827 14.7807 581.167 14.5753 581.447 14.314C581.727 14.0527 581.975 13.7447 582.189 13.39L580.873 12.872C580.752 13.0773 580.603 13.2593 580.425 13.418C580.248 13.5673 580.043 13.684 579.809 13.768C579.585 13.852 579.324 13.894 579.025 13.894C578.671 13.894 578.353 13.8193 578.073 13.67C577.803 13.5113 577.588 13.2733 577.429 12.956C577.28 12.6387 577.205 12.2467 577.205 11.78L577.233 11.388C577.233 11.0147 577.308 10.6927 577.457 10.422C577.616 10.142 577.831 9.932 578.101 9.792C578.372 9.64267 578.675 9.568 579.011 9.568C579.338 9.568 579.613 9.63333 579.837 9.764C580.061 9.88533 580.234 10.0627 580.355 10.296C580.486 10.52 580.57 10.7813 580.607 11.08H576.575V12.13ZM583.758 8.56V15H585.256V9.89H587.468V8.56H583.758ZM591.364 10.73L593.114 14.58L594.696 14.398L591.364 8.07L588.046 14.398L589.614 14.58L591.364 10.73ZM594.024 15V16.26H595.494V13.698H587.234V16.26H588.774V15H594.024ZM598.039 13.096C598.039 12.872 598.095 12.6807 598.207 12.522C598.319 12.354 598.482 12.228 598.697 12.144C598.912 12.0507 599.178 12.004 599.495 12.004C599.887 12.004 600.232 12.0553 600.531 12.158C600.83 12.2513 601.124 12.4053 601.413 12.62V11.822C601.338 11.7287 601.203 11.6213 601.007 11.5C600.811 11.3787 600.564 11.2713 600.265 11.178C599.976 11.0847 599.644 11.038 599.271 11.038C598.711 11.038 598.221 11.122 597.801 11.29C597.39 11.458 597.073 11.7007 596.849 12.018C596.625 12.3353 596.513 12.7133 596.513 13.152C596.513 13.5907 596.611 13.9593 596.807 14.258C597.012 14.5473 597.283 14.7667 597.619 14.916C597.964 15.0653 598.347 15.14 598.767 15.14C599.215 15.14 599.621 15.0653 599.985 14.916C600.349 14.7573 600.638 14.5333 600.853 14.244C601.068 13.9453 601.175 13.5907 601.175 13.18L600.951 12.438C600.951 12.8207 600.876 13.124 600.727 13.348C600.578 13.572 600.372 13.7353 600.111 13.838C599.85 13.9407 599.556 13.992 599.229 13.992C599.014 13.992 598.814 13.9593 598.627 13.894C598.45 13.8193 598.305 13.7167 598.193 13.586C598.09 13.4553 598.039 13.292 598.039 13.096ZM597.717 10.254C597.82 10.1887 597.964 10.1093 598.151 10.016C598.347 9.91333 598.571 9.82467 598.823 9.75C599.084 9.67533 599.369 9.638 599.677 9.638C600.032 9.638 600.33 9.722 600.573 9.89C600.825 10.0487 600.951 10.2773 600.951 10.576V15H602.435V10.408C602.435 9.97867 602.318 9.61467 602.085 9.316C601.861 9.01733 601.548 8.79333 601.147 8.644C600.746 8.48533 600.279 8.406 599.747 8.406C599.168 8.406 598.655 8.49 598.207 8.658C597.759 8.826 597.39 8.99867 597.101 9.176L597.717 10.254ZM609.373 11.64V12.298H611.235C611.422 12.298 611.581 12.3167 611.711 12.354C611.851 12.3913 611.959 12.4473 612.033 12.522C612.117 12.5967 612.183 12.6807 612.229 12.774C612.276 12.858 612.299 12.9607 612.299 13.082C612.299 13.2967 612.215 13.4833 612.047 13.642C611.879 13.8007 611.609 13.88 611.235 13.88H609.373V15H611.697C612.435 15 612.962 14.832 613.279 14.496C613.606 14.1507 613.769 13.7353 613.769 13.25C613.769 12.83 613.667 12.5033 613.461 12.27C613.256 12.0367 612.976 11.8733 612.621 11.78C612.267 11.6867 611.865 11.64 611.417 11.64H609.373ZM609.373 11.92H611.277C611.679 11.92 612.043 11.864 612.369 11.752C612.705 11.6307 612.976 11.4533 613.181 11.22C613.387 10.9773 613.489 10.674 613.489 10.31C613.489 9.89 613.387 9.554 613.181 9.302C612.976 9.04067 612.705 8.854 612.369 8.742C612.043 8.62067 611.679 8.56 611.277 8.56H609.373V9.68H611.095C611.385 9.68 611.609 9.75 611.767 9.89C611.935 10.03 612.019 10.2073 612.019 10.422C612.019 10.5247 611.996 10.6227 611.949 10.716C611.912 10.8093 611.851 10.8933 611.767 10.968C611.693 11.0427 611.599 11.0987 611.487 11.136C611.375 11.1733 611.245 11.192 611.095 11.192H609.373V11.92ZM608.491 8.56V15H609.975V8.56H608.491ZM620.017 12.228H624.945V10.968H620.017V12.228ZM624.133 8.56V15H625.617V8.56H624.133ZM619.359 8.56V15H620.843V8.56H619.359ZM628.5 13.096C628.5 12.872 628.556 12.6807 628.668 12.522C628.78 12.354 628.943 12.228 629.158 12.144C629.373 12.0507 629.639 12.004 629.956 12.004C630.348 12.004 630.693 12.0553 630.992 12.158C631.291 12.2513 631.585 12.4053 631.874 12.62V11.822C631.799 11.7287 631.664 11.6213 631.468 11.5C631.272 11.3787 631.025 11.2713 630.726 11.178C630.437 11.0847 630.105 11.038 629.732 11.038C629.172 11.038 628.682 11.122 628.262 11.29C627.851 11.458 627.534 11.7007 627.31 12.018C627.086 12.3353 626.974 12.7133 626.974 13.152C626.974 13.5907 627.072 13.9593 627.268 14.258C627.473 14.5473 627.744 14.7667 628.08 14.916C628.425 15.0653 628.808 15.14 629.228 15.14C629.676 15.14 630.082 15.0653 630.446 14.916C630.81 14.7573 631.099 14.5333 631.314 14.244C631.529 13.9453 631.636 13.5907 631.636 13.18L631.412 12.438C631.412 12.8207 631.337 13.124 631.188 13.348C631.039 13.572 630.833 13.7353 630.572 13.838C630.311 13.9407 630.017 13.992 629.69 13.992C629.475 13.992 629.275 13.9593 629.088 13.894C628.911 13.8193 628.766 13.7167 628.654 13.586C628.551 13.4553 628.5 13.292 628.5 13.096ZM628.178 10.254C628.281 10.1887 628.425 10.1093 628.612 10.016C628.808 9.91333 629.032 9.82467 629.284 9.75C629.545 9.67533 629.83 9.638 630.138 9.638C630.493 9.638 630.791 9.722 631.034 9.89C631.286 10.0487 631.412 10.2773 631.412 10.576V15H632.896V10.408C632.896 9.97867 632.779 9.61467 632.546 9.316C632.322 9.01733 632.009 8.79333 631.608 8.644C631.207 8.48533 630.74 8.406 630.208 8.406C629.629 8.406 629.116 8.49 628.668 8.658C628.22 8.826 627.851 8.99867 627.562 9.176L628.178 10.254ZM640.761 8.56H634.867V12.55C634.867 12.97 634.764 13.2547 634.559 13.404C634.363 13.5533 634.125 13.628 633.845 13.628V15C634.452 15 634.937 14.9207 635.301 14.762C635.674 14.594 635.94 14.3467 636.099 14.02C636.267 13.684 636.351 13.264 636.351 12.76V9.96H639.277V15H640.761V8.56ZM648.685 9.96L648.755 8.07L642.973 13.6L642.903 15.49L648.685 9.96ZM644.387 8.56H642.903V15.49L644.387 13.768V8.56ZM648.755 8.07L647.271 9.778V15H648.755V8.07ZM653.003 13.18H655.201V11.85H653.255L653.003 13.18ZM654.403 8.56V15H655.929V8.56H654.403ZM652.009 8.56H650.483V10.408C650.483 11.0333 650.558 11.5513 650.707 11.962C650.857 12.3727 651.113 12.6807 651.477 12.886C651.851 13.082 652.359 13.18 653.003 13.18L653.255 11.85C652.947 11.85 652.7 11.8033 652.513 11.71C652.336 11.6167 652.205 11.472 652.121 11.276C652.047 11.0707 652.009 10.8047 652.009 10.478V8.56ZM663.724 9.96L663.794 8.07L658.012 13.6L657.942 15.49L663.724 9.96ZM659.426 8.56H657.942V15.49L659.426 13.768V8.56ZM663.794 8.07L662.31 9.778V15H663.794V8.07ZM671.626 9.96L671.696 8.07L665.914 13.6L665.844 15.49L671.626 9.96ZM667.328 8.56H665.844V15.49L667.328 13.768V8.56ZM671.696 8.07L670.212 9.778V15H671.696V8.07ZM677.398 11.78C677.398 12.4333 677.547 13.0167 677.846 13.53C678.154 14.034 678.569 14.4307 679.092 14.72C679.624 15 680.217 15.14 680.87 15.14C681.533 15.14 682.125 15 682.648 14.72C683.171 14.4307 683.581 14.034 683.88 13.53C684.188 13.0167 684.342 12.4333 684.342 11.78C684.342 11.1173 684.188 10.534 683.88 10.03C683.581 9.526 683.171 9.134 682.648 8.854C682.125 8.56467 681.533 8.42 680.87 8.42C680.217 8.42 679.624 8.56467 679.092 8.854C678.569 9.134 678.154 9.526 677.846 10.03C677.547 10.534 677.398 11.1173 677.398 11.78ZM678.952 11.78C678.952 11.3787 679.036 11.024 679.204 10.716C679.372 10.408 679.601 10.17 679.89 10.002C680.179 9.834 680.506 9.75 680.87 9.75C681.234 9.75 681.561 9.834 681.85 10.002C682.139 10.17 682.368 10.408 682.536 10.716C682.704 11.024 682.788 11.3787 682.788 11.78C682.788 12.1813 682.704 12.536 682.536 12.844C682.368 13.1427 682.139 13.3807 681.85 13.558C681.561 13.726 681.234 13.81 680.87 13.81C680.506 13.81 680.179 13.726 679.89 13.558C679.601 13.3807 679.372 13.1427 679.204 12.844C679.036 12.536 678.952 12.1813 678.952 11.78ZM687.26 18.08V8.56H685.734V18.08H687.26ZM692.594 11.78C692.594 11.052 692.45 10.4407 692.16 9.946C691.871 9.442 691.488 9.05467 691.012 8.784C690.536 8.51333 690.018 8.378 689.458 8.378C688.917 8.378 688.441 8.518 688.03 8.798C687.629 9.078 687.316 9.47 687.092 9.974C686.868 10.478 686.756 11.08 686.756 11.78C686.756 12.4707 686.868 13.0727 687.092 13.586C687.316 14.09 687.629 14.482 688.03 14.762C688.441 15.0327 688.917 15.168 689.458 15.168C690.018 15.168 690.536 15.0373 691.012 14.776C691.488 14.5053 691.871 14.118 692.16 13.614C692.45 13.1007 692.594 12.4893 692.594 11.78ZM691.026 11.78C691.026 12.2093 690.938 12.5733 690.76 12.872C690.583 13.1707 690.35 13.3993 690.06 13.558C689.771 13.7167 689.449 13.796 689.094 13.796C688.796 13.796 688.506 13.7213 688.226 13.572C687.946 13.4133 687.713 13.1847 687.526 12.886C687.349 12.5873 687.26 12.2187 687.26 11.78C687.26 11.3413 687.349 10.9727 687.526 10.674C687.713 10.3753 687.946 10.1513 688.226 10.002C688.506 9.84333 688.796 9.764 689.094 9.764C689.449 9.764 689.771 9.84333 690.06 10.002C690.35 10.1513 690.583 10.38 690.76 10.688C690.938 10.9867 691.026 11.3507 691.026 11.78ZM699.872 9.96L699.942 8.07L694.16 13.6L694.09 15.49L699.872 9.96ZM695.574 8.56H694.09V15.49L695.574 13.768V8.56ZM699.942 8.07L698.458 9.778V15H699.942V8.07ZM701.993 8.56V15H703.491V9.89H705.703V8.56H701.993ZM712.546 9.96L712.616 8.07L706.834 13.6L706.764 15.49L712.546 9.96ZM708.248 8.56H706.764V15.49L708.248 13.768V8.56ZM712.616 8.07L711.132 9.778V15H712.616V8.07ZM715.269 12.228H720.197V10.968H715.269V12.228ZM719.385 8.56V15H720.869V8.56H719.385ZM714.611 8.56V15H716.095V8.56H714.611ZM723.752 13.096C723.752 12.872 723.808 12.6807 723.92 12.522C724.032 12.354 724.195 12.228 724.41 12.144C724.625 12.0507 724.891 12.004 725.208 12.004C725.6 12.004 725.945 12.0553 726.244 12.158C726.543 12.2513 726.837 12.4053 727.126 12.62V11.822C727.051 11.7287 726.916 11.6213 726.72 11.5C726.524 11.3787 726.277 11.2713 725.978 11.178C725.689 11.0847 725.357 11.038 724.984 11.038C724.424 11.038 723.934 11.122 723.514 11.29C723.103 11.458 722.786 11.7007 722.562 12.018C722.338 12.3353 722.226 12.7133 722.226 13.152C722.226 13.5907 722.324 13.9593 722.52 14.258C722.725 14.5473 722.996 14.7667 723.332 14.916C723.677 15.0653 724.06 15.14 724.48 15.14C724.928 15.14 725.334 15.0653 725.698 14.916C726.062 14.7573 726.351 14.5333 726.566 14.244C726.781 13.9453 726.888 13.5907 726.888 13.18L726.664 12.438C726.664 12.8207 726.589 13.124 726.44 13.348C726.291 13.572 726.085 13.7353 725.824 13.838C725.563 13.9407 725.269 13.992 724.942 13.992C724.727 13.992 724.527 13.9593 724.34 13.894C724.163 13.8193 724.018 13.7167 723.906 13.586C723.803 13.4553 723.752 13.292 723.752 13.096ZM723.43 10.254C723.533 10.1887 723.677 10.1093 723.864 10.016C724.06 9.91333 724.284 9.82467 724.536 9.75C724.797 9.67533 725.082 9.638 725.39 9.638C725.745 9.638 726.043 9.722 726.286 9.89C726.538 10.0487 726.664 10.2773 726.664 10.576V15H728.148V10.408C728.148 9.97867 728.031 9.61467 727.798 9.316C727.574 9.01733 727.261 8.79333 726.86 8.644C726.459 8.48533 725.992 8.406 725.46 8.406C724.881 8.406 724.368 8.49 723.92 8.658C723.472 8.826 723.103 8.99867 722.814 9.176L723.43 10.254ZM736.013 8.56H730.119V12.55C730.119 12.97 730.016 13.2547 729.811 13.404C729.615 13.5533 729.377 13.628 729.097 13.628V15C729.704 15 730.189 14.9207 730.553 14.762C730.926 14.594 731.192 14.3467 731.351 14.02C731.519 13.684 731.603 13.264 731.603 12.76V9.96H734.529V15H736.013V8.56ZM738.127 8.56V15H739.653V8.56H738.127ZM739.191 12.032H741.039C741.384 12.032 741.641 12.1067 741.809 12.256C741.986 12.4053 742.075 12.62 742.075 12.9C742.075 13.0773 742.033 13.2313 741.949 13.362C741.874 13.4927 741.757 13.5907 741.599 13.656C741.449 13.7213 741.263 13.754 741.039 13.754H739.191V15H741.193C741.641 15 742.042 14.9207 742.397 14.762C742.751 14.6033 743.031 14.3653 743.237 14.048C743.442 13.7307 743.545 13.3433 743.545 12.886C743.545 12.1953 743.316 11.6913 742.859 11.374C742.411 11.0473 741.855 10.884 741.193 10.884H739.191V12.032ZM745.866 12.228H750.794V10.968H745.866V12.228ZM749.982 8.56V15H751.466V8.56H749.982ZM745.208 8.56V15H746.692V8.56H745.208ZM759.642 8.56V15H761.168V8.56H759.642ZM753.398 8.56V15H754.924V8.56H753.398ZM754.462 12.032H756.31C756.646 12.032 756.902 12.1067 757.08 12.256C757.257 12.4053 757.346 12.62 757.346 12.9C757.346 13.0773 757.304 13.2313 757.22 13.362C757.145 13.4927 757.028 13.5907 756.87 13.656C756.72 13.7213 756.534 13.754 756.31 13.754H754.462V15H756.464C756.912 15 757.313 14.9207 757.668 14.762C758.022 14.6033 758.302 14.3653 758.508 14.048C758.713 13.7307 758.816 13.3433 758.816 12.886C758.816 12.1953 758.587 11.6913 758.13 11.374C757.682 11.0473 757.126 10.884 756.464 10.884H754.462V12.032ZM763.525 12.13H769.181C769.19 12.046 769.195 11.9713 769.195 11.906C769.195 11.8313 769.195 11.766 769.195 11.71C769.195 11.0287 769.064 10.4453 768.803 9.96C768.551 9.46533 768.182 9.08733 767.697 8.826C767.221 8.55533 766.647 8.42 765.975 8.42C765.368 8.42 764.831 8.532 764.365 8.756C763.898 8.98 763.52 9.29267 763.231 9.694C762.951 10.0953 762.764 10.562 762.671 11.094C762.652 11.206 762.638 11.318 762.629 11.43C762.619 11.542 762.615 11.6587 762.615 11.78C762.615 12.424 762.75 13.0027 763.021 13.516C763.291 14.02 763.674 14.4167 764.169 14.706C764.673 14.9953 765.251 15.14 765.905 15.14C766.493 15.14 766.983 15.07 767.375 14.93C767.776 14.7807 768.117 14.5753 768.397 14.314C768.677 14.0527 768.924 13.7447 769.139 13.39L767.823 12.872C767.701 13.0773 767.552 13.2593 767.375 13.418C767.197 13.5673 766.992 13.684 766.759 13.768C766.535 13.852 766.273 13.894 765.975 13.894C765.62 13.894 765.303 13.8193 765.023 13.67C764.752 13.5113 764.537 13.2733 764.379 12.956C764.229 12.6387 764.155 12.2467 764.155 11.78L764.183 11.388C764.183 11.0147 764.257 10.6927 764.407 10.422C764.565 10.142 764.78 9.932 765.051 9.792C765.321 9.64267 765.625 9.568 765.961 9.568C766.287 9.568 766.563 9.63333 766.787 9.764C767.011 9.88533 767.183 10.0627 767.305 10.296C767.435 10.52 767.519 10.7813 767.557 11.08H763.525V12.13ZM563.528 29.78C564.349 29.7987 564.975 29.6587 565.404 29.36C565.833 29.052 566.048 28.6647 566.048 28.198C566.048 27.8713 565.945 27.5727 565.74 27.302C565.535 27.0313 565.25 26.8167 564.886 26.658C564.522 26.4993 564.111 26.42 563.654 26.42C563.169 26.42 562.735 26.5133 562.352 26.7C561.979 26.8867 561.685 27.1387 561.47 27.456C561.265 27.7733 561.162 28.1327 561.162 28.534H562.604C562.604 28.3847 562.641 28.2447 562.716 28.114C562.8 27.974 562.921 27.862 563.08 27.778C563.239 27.6847 563.435 27.638 563.668 27.638C563.948 27.638 564.172 27.7033 564.34 27.834C564.508 27.9647 564.592 28.1373 564.592 28.352C564.592 28.5667 564.508 28.7487 564.34 28.898C564.172 29.038 563.901 29.108 563.528 29.108V29.78ZM563.626 33.14C564.13 33.14 564.587 33.0607 564.998 32.902C565.409 32.734 565.731 32.5007 565.964 32.202C566.207 31.894 566.328 31.53 566.328 31.11C566.328 30.5127 566.076 30.0693 565.572 29.78C565.077 29.4813 564.396 29.3413 563.528 29.36V30.102C563.817 30.102 564.06 30.1393 564.256 30.214C564.461 30.2887 564.615 30.396 564.718 30.536C564.821 30.6667 564.872 30.8347 564.872 31.04C564.872 31.2173 564.821 31.376 564.718 31.516C564.625 31.656 564.485 31.7633 564.298 31.838C564.111 31.9127 563.887 31.95 563.626 31.95C563.225 31.95 562.921 31.8473 562.716 31.642C562.52 31.4367 562.389 31.1893 562.324 30.9H560.84C560.915 31.5627 561.19 32.104 561.666 32.524C562.151 32.9347 562.805 33.14 563.626 33.14ZM568.877 31.096C568.877 30.872 568.933 30.6807 569.045 30.522C569.157 30.354 569.32 30.228 569.535 30.144C569.75 30.0507 570.016 30.004 570.333 30.004C570.725 30.004 571.07 30.0553 571.369 30.158C571.668 30.2513 571.962 30.4053 572.251 30.62V29.822C572.176 29.7287 572.041 29.6213 571.845 29.5C571.649 29.3787 571.402 29.2713 571.103 29.178C570.814 29.0847 570.482 29.038 570.109 29.038C569.549 29.038 569.059 29.122 568.639 29.29C568.228 29.458 567.911 29.7007 567.687 30.018C567.463 30.3353 567.351 30.7133 567.351 31.152C567.351 31.5907 567.449 31.9593 567.645 32.258C567.85 32.5473 568.121 32.7667 568.457 32.916C568.802 33.0653 569.185 33.14 569.605 33.14C570.053 33.14 570.459 33.0653 570.823 32.916C571.187 32.7573 571.476 32.5333 571.691 32.244C571.906 31.9453 572.013 31.5907 572.013 31.18L571.789 30.438C571.789 30.8207 571.714 31.124 571.565 31.348C571.416 31.572 571.21 31.7353 570.949 31.838C570.688 31.9407 570.394 31.992 570.067 31.992C569.852 31.992 569.652 31.9593 569.465 31.894C569.288 31.8193 569.143 31.7167 569.031 31.586C568.928 31.4553 568.877 31.292 568.877 31.096ZM568.555 28.254C568.658 28.1887 568.802 28.1093 568.989 28.016C569.185 27.9133 569.409 27.8247 569.661 27.75C569.922 27.6753 570.207 27.638 570.515 27.638C570.87 27.638 571.168 27.722 571.411 27.89C571.663 28.0487 571.789 28.2773 571.789 28.576V33H573.273V28.408C573.273 27.9787 573.156 27.6147 572.923 27.316C572.699 27.0173 572.386 26.7933 571.985 26.644C571.584 26.4853 571.117 26.406 570.585 26.406C570.006 26.406 569.493 26.49 569.045 26.658C568.597 26.826 568.228 26.9987 567.939 27.176L568.555 28.254ZM580.746 26.56H575.048V33H576.532V27.918H579.262V33H580.746V26.56ZM584.931 31.18H587.129V29.85H585.183L584.931 31.18ZM586.331 26.56V33H587.857V26.56H586.331ZM583.937 26.56H582.411V28.408C582.411 29.0333 582.486 29.5513 582.635 29.962C582.784 30.3727 583.041 30.6807 583.405 30.886C583.778 31.082 584.287 31.18 584.931 31.18L585.183 29.85C584.875 29.85 584.628 29.8033 584.441 29.71C584.264 29.6167 584.133 29.472 584.049 29.276C583.974 29.0707 583.937 28.8047 583.937 28.478V26.56ZM590.766 31.096C590.766 30.872 590.822 30.6807 590.934 30.522C591.046 30.354 591.209 30.228 591.424 30.144C591.638 30.0507 591.904 30.004 592.222 30.004C592.614 30.004 592.959 30.0553 593.258 30.158C593.556 30.2513 593.85 30.4053 594.14 30.62V29.822C594.065 29.7287 593.93 29.6213 593.734 29.5C593.538 29.3787 593.29 29.2713 592.992 29.178C592.702 29.0847 592.371 29.038 591.998 29.038C591.438 29.038 590.948 29.122 590.528 29.29C590.117 29.458 589.8 29.7007 589.576 30.018C589.352 30.3353 589.24 30.7133 589.24 31.152C589.24 31.5907 589.338 31.9593 589.534 32.258C589.739 32.5473 590.01 32.7667 590.346 32.916C590.691 33.0653 591.074 33.14 591.494 33.14C591.942 33.14 592.348 33.0653 592.712 32.916C593.076 32.7573 593.365 32.5333 593.58 32.244C593.794 31.9453 593.902 31.5907 593.902 31.18L593.678 30.438C593.678 30.8207 593.603 31.124 593.454 31.348C593.304 31.572 593.099 31.7353 592.838 31.838C592.576 31.9407 592.282 31.992 591.956 31.992C591.741 31.992 591.54 31.9593 591.354 31.894C591.176 31.8193 591.032 31.7167 590.92 31.586C590.817 31.4553 590.766 31.292 590.766 31.096ZM590.444 28.254C590.546 28.1887 590.691 28.1093 590.878 28.016C591.074 27.9133 591.298 27.8247 591.55 27.75C591.811 27.6753 592.096 27.638 592.404 27.638C592.758 27.638 593.057 27.722 593.3 27.89C593.552 28.0487 593.678 28.2773 593.678 28.576V33H595.162V28.408C595.162 27.9787 595.045 27.6147 594.812 27.316C594.588 27.0173 594.275 26.7933 593.874 26.644C593.472 26.4853 593.006 26.406 592.474 26.406C591.895 26.406 591.382 26.49 590.934 26.658C590.486 26.826 590.117 26.9987 589.828 27.176L590.444 28.254ZM597.945 29.78C597.945 29.3787 598.033 29.024 598.211 28.716C598.388 28.408 598.626 28.1653 598.925 27.988C599.233 27.8107 599.573 27.722 599.947 27.722C600.245 27.722 600.535 27.7687 600.815 27.862C601.095 27.9553 601.342 28.086 601.557 28.254C601.781 28.4127 601.944 28.5993 602.047 28.814V27.134C601.823 26.9193 601.519 26.7467 601.137 26.616C600.754 26.4853 600.334 26.42 599.877 26.42C599.223 26.42 598.631 26.5647 598.099 26.854C597.576 27.134 597.161 27.526 596.853 28.03C596.545 28.534 596.391 29.1173 596.391 29.78C596.391 30.4333 596.545 31.0167 596.853 31.53C597.161 32.034 597.576 32.4307 598.099 32.72C598.631 33 599.223 33.14 599.877 33.14C600.334 33.14 600.754 33.0747 601.137 32.944C601.519 32.8133 601.823 32.636 602.047 32.412V30.746C601.944 30.9513 601.785 31.138 601.571 31.306C601.356 31.4647 601.109 31.5953 600.829 31.698C600.558 31.7913 600.264 31.838 599.947 31.838C599.573 31.838 599.233 31.7493 598.925 31.572C598.626 31.3947 598.388 31.152 598.211 30.844C598.033 30.536 597.945 30.1813 597.945 29.78ZM602.822 26.56V27.89H606.896V26.56H602.822ZM604.124 26.84V33H605.608V26.84H604.124ZM613.767 27.96L613.837 26.07L608.055 31.6L607.985 33.49L613.767 27.96ZM609.469 26.56H607.985V33.49L609.469 31.768V26.56ZM613.837 26.07L612.353 27.778V33H613.837V26.07ZM619.539 29.78C619.539 30.4333 619.688 31.0167 619.986 31.53C620.295 32.034 620.71 32.4307 621.233 32.72C621.765 33 622.357 33.14 623.011 33.14C623.673 33.14 624.266 33 624.789 32.72C625.311 32.4307 625.722 32.034 626.021 31.53C626.329 31.0167 626.483 30.4333 626.483 29.78C626.483 29.1173 626.329 28.534 626.021 28.03C625.722 27.526 625.311 27.134 624.789 26.854C624.266 26.5647 623.673 26.42 623.011 26.42C622.357 26.42 621.765 26.5647 621.233 26.854C620.71 27.134 620.295 27.526 619.986 28.03C619.688 28.534 619.539 29.1173 619.539 29.78ZM621.093 29.78C621.093 29.3787 621.177 29.024 621.345 28.716C621.513 28.408 621.741 28.17 622.031 28.002C622.32 27.834 622.647 27.75 623.011 27.75C623.375 27.75 623.701 27.834 623.991 28.002C624.28 28.17 624.509 28.408 624.677 28.716C624.845 29.024 624.929 29.3787 624.929 29.78C624.929 30.1813 624.845 30.536 624.677 30.844C624.509 31.1427 624.28 31.3807 623.991 31.558C623.701 31.726 623.375 31.81 623.011 31.81C622.647 31.81 622.32 31.726 622.031 31.558C621.741 31.3807 621.513 31.1427 621.345 30.844C621.177 30.536 621.093 30.1813 621.093 29.78ZM627.035 26.56V27.89H631.109V26.56H627.035ZM628.337 26.84V33H629.821V26.84H628.337ZM642.037 26.56H636.339V33H637.823V27.918H640.553V33H642.037V26.56ZM645.438 36.08V26.56H643.912V36.08H645.438ZM650.772 29.78C650.772 29.052 650.627 28.4407 650.338 27.946C650.049 27.442 649.666 27.0547 649.19 26.784C648.714 26.5133 648.196 26.378 647.636 26.378C647.095 26.378 646.619 26.518 646.208 26.798C645.807 27.078 645.494 27.47 645.27 27.974C645.046 28.478 644.934 29.08 644.934 29.78C644.934 30.4707 645.046 31.0727 645.27 31.586C645.494 32.09 645.807 32.482 646.208 32.762C646.619 33.0327 647.095 33.168 647.636 33.168C648.196 33.168 648.714 33.0373 649.19 32.776C649.666 32.5053 650.049 32.118 650.338 31.614C650.627 31.1007 650.772 30.4893 650.772 29.78ZM649.204 29.78C649.204 30.2093 649.115 30.5733 648.938 30.872C648.761 31.1707 648.527 31.3993 648.238 31.558C647.949 31.7167 647.627 31.796 647.272 31.796C646.973 31.796 646.684 31.7213 646.404 31.572C646.124 31.4133 645.891 31.1847 645.704 30.886C645.527 30.5873 645.438 30.2187 645.438 29.78C645.438 29.3413 645.527 28.9727 645.704 28.674C645.891 28.3753 646.124 28.1513 646.404 28.002C646.684 27.8433 646.973 27.764 647.272 27.764C647.627 27.764 647.949 27.8433 648.238 28.002C648.527 28.1513 648.761 28.38 648.938 28.688C649.115 28.9867 649.204 29.3507 649.204 29.78ZM651.722 29.78C651.722 30.4333 651.871 31.0167 652.17 31.53C652.478 32.034 652.893 32.4307 653.416 32.72C653.948 33 654.541 33.14 655.194 33.14C655.857 33.14 656.449 33 656.972 32.72C657.495 32.4307 657.905 32.034 658.204 31.53C658.512 31.0167 658.666 30.4333 658.666 29.78C658.666 29.1173 658.512 28.534 658.204 28.03C657.905 27.526 657.495 27.134 656.972 26.854C656.449 26.5647 655.857 26.42 655.194 26.42C654.541 26.42 653.948 26.5647 653.416 26.854C652.893 27.134 652.478 27.526 652.17 28.03C651.871 28.534 651.722 29.1173 651.722 29.78ZM653.276 29.78C653.276 29.3787 653.36 29.024 653.528 28.716C653.696 28.408 653.925 28.17 654.214 28.002C654.503 27.834 654.83 27.75 655.194 27.75C655.558 27.75 655.885 27.834 656.174 28.002C656.463 28.17 656.692 28.408 656.86 28.716C657.028 29.024 657.112 29.3787 657.112 29.78C657.112 30.1813 657.028 30.536 656.86 30.844C656.692 31.1427 656.463 31.3807 656.174 31.558C655.885 31.726 655.558 31.81 655.194 31.81C654.83 31.81 654.503 31.726 654.214 31.558C653.925 31.3807 653.696 31.1427 653.528 30.844C653.36 30.536 653.276 30.1813 653.276 29.78ZM665.952 27.96L666.022 26.07L660.24 31.6L660.17 33.49L665.952 27.96ZM661.654 26.56H660.17V33.49L661.654 31.768V26.56ZM666.022 26.07L664.538 27.778V33H666.022V26.07ZM670.579 29.78C671.4 29.7987 672.025 29.6587 672.455 29.36C672.884 29.052 673.099 28.6647 673.099 28.198C673.099 27.8713 672.996 27.5727 672.791 27.302C672.585 27.0313 672.301 26.8167 671.937 26.658C671.573 26.4993 671.162 26.42 670.705 26.42C670.219 26.42 669.785 26.5133 669.403 26.7C669.029 26.8867 668.735 27.1387 668.521 27.456C668.315 27.7733 668.213 28.1327 668.213 28.534H669.655C669.655 28.3847 669.692 28.2447 669.767 28.114C669.851 27.974 669.972 27.862 670.131 27.778C670.289 27.6847 670.485 27.638 670.719 27.638C670.999 27.638 671.223 27.7033 671.391 27.834C671.559 27.9647 671.643 28.1373 671.643 28.352C671.643 28.5667 671.559 28.7487 671.391 28.898C671.223 29.038 670.952 29.108 670.579 29.108V29.78ZM670.677 33.14C671.181 33.14 671.638 33.0607 672.049 32.902C672.459 32.734 672.781 32.5007 673.015 32.202C673.257 31.894 673.379 31.53 673.379 31.11C673.379 30.5127 673.127 30.0693 672.623 29.78C672.128 29.4813 671.447 29.3413 670.579 29.36V30.102C670.868 30.102 671.111 30.1393 671.307 30.214C671.512 30.2887 671.666 30.396 671.769 30.536C671.871 30.6667 671.923 30.8347 671.923 31.04C671.923 31.2173 671.871 31.376 671.769 31.516C671.675 31.656 671.535 31.7633 671.349 31.838C671.162 31.9127 670.938 31.95 670.677 31.95C670.275 31.95 669.972 31.8473 669.767 31.642C669.571 31.4367 669.44 31.1893 669.375 30.9H667.891C667.965 31.5627 668.241 32.104 668.717 32.524C669.202 32.9347 669.855 33.14 670.677 33.14ZM675.942 29.64V30.298H677.804C677.99 30.298 678.149 30.3167 678.28 30.354C678.42 30.3913 678.527 30.4473 678.602 30.522C678.686 30.5967 678.751 30.6807 678.798 30.774C678.844 30.858 678.868 30.9607 678.868 31.082C678.868 31.2967 678.784 31.4833 678.616 31.642C678.448 31.8007 678.177 31.88 677.804 31.88H675.942V33H678.266C679.003 33 679.53 32.832 679.848 32.496C680.174 32.1507 680.338 31.7353 680.338 31.25C680.338 30.83 680.235 30.5033 680.03 30.27C679.824 30.0367 679.544 29.8733 679.19 29.78C678.835 29.6867 678.434 29.64 677.986 29.64H675.942ZM675.942 29.92H677.846C678.247 29.92 678.611 29.864 678.938 29.752C679.274 29.6307 679.544 29.4533 679.75 29.22C679.955 28.9773 680.058 28.674 680.058 28.31C680.058 27.89 679.955 27.554 679.75 27.302C679.544 27.0407 679.274 26.854 678.938 26.742C678.611 26.6207 678.247 26.56 677.846 26.56H675.942V27.68H677.664C677.953 27.68 678.177 27.75 678.336 27.89C678.504 28.03 678.588 28.2073 678.588 28.422C678.588 28.5247 678.564 28.6227 678.518 28.716C678.48 28.8093 678.42 28.8933 678.336 28.968C678.261 29.0427 678.168 29.0987 678.056 29.136C677.944 29.1733 677.813 29.192 677.664 29.192H675.942V29.92ZM675.06 26.56V33H676.544V26.56H675.06ZM681.24 29.78C681.24 30.4333 681.389 31.0167 681.688 31.53C681.996 32.034 682.411 32.4307 682.934 32.72C683.466 33 684.058 33.14 684.712 33.14C685.374 33.14 685.967 33 686.49 32.72C687.012 32.4307 687.423 32.034 687.722 31.53C688.03 31.0167 688.184 30.4333 688.184 29.78C688.184 29.1173 688.03 28.534 687.722 28.03C687.423 27.526 687.012 27.134 686.49 26.854C685.967 26.5647 685.374 26.42 684.712 26.42C684.058 26.42 683.466 26.5647 682.934 26.854C682.411 27.134 681.996 27.526 681.688 28.03C681.389 28.534 681.24 29.1173 681.24 29.78ZM682.794 29.78C682.794 29.3787 682.878 29.024 683.046 28.716C683.214 28.408 683.442 28.17 683.732 28.002C684.021 27.834 684.348 27.75 684.712 27.75C685.076 27.75 685.402 27.834 685.692 28.002C685.981 28.17 686.21 28.408 686.378 28.716C686.546 29.024 686.63 29.3787 686.63 29.78C686.63 30.1813 686.546 30.536 686.378 30.844C686.21 31.1427 685.981 31.3807 685.692 31.558C685.402 31.726 685.076 31.81 684.712 31.81C684.348 31.81 684.021 31.726 683.732 31.558C683.442 31.3807 683.214 31.1427 683.046 30.844C682.878 30.536 682.794 30.1813 682.794 29.78ZM692.659 28.73L694.409 32.58L695.991 32.398L692.659 26.07L689.341 32.398L690.909 32.58L692.659 28.73ZM695.319 33V34.26H696.789V31.698H688.529V34.26H690.069V33H695.319ZM704.22 27.96L704.29 26.07L698.508 31.6L698.438 33.49L704.22 27.96ZM699.922 26.56H698.438V33.49L699.922 31.768V26.56ZM704.29 26.07L702.806 27.778V33H704.29V26.07ZM705.388 26.56V27.89H709.462V26.56H705.388ZM706.69 26.84V33H708.174V26.84H706.69ZM710.71 30.13H716.366C716.376 30.046 716.38 29.9713 716.38 29.906C716.38 29.8313 716.38 29.766 716.38 29.71C716.38 29.0287 716.25 28.4453 715.988 27.96C715.736 27.4653 715.368 27.0873 714.882 26.826C714.406 26.5553 713.832 26.42 713.16 26.42C712.554 26.42 712.017 26.532 711.55 26.756C711.084 26.98 710.706 27.2927 710.416 27.694C710.136 28.0953 709.95 28.562 709.856 29.094C709.838 29.206 709.824 29.318 709.814 29.43C709.805 29.542 709.8 29.6587 709.8 29.78C709.8 30.424 709.936 31.0027 710.206 31.516C710.477 32.02 710.86 32.4167 711.354 32.706C711.858 32.9953 712.437 33.14 713.09 33.14C713.678 33.14 714.168 33.07 714.56 32.93C714.962 32.7807 715.302 32.5753 715.582 32.314C715.862 32.0527 716.11 31.7447 716.324 31.39L715.008 30.872C714.887 31.0773 714.738 31.2593 714.56 31.418C714.383 31.5673 714.178 31.684 713.944 31.768C713.72 31.852 713.459 31.894 713.16 31.894C712.806 31.894 712.488 31.8193 712.208 31.67C711.938 31.5113 711.723 31.2733 711.564 30.956C711.415 30.6387 711.34 30.2467 711.34 29.78L711.368 29.388C711.368 29.0147 711.443 28.6927 711.592 28.422C711.751 28.142 711.966 27.932 712.236 27.792C712.507 27.6427 712.81 27.568 713.146 27.568C713.473 27.568 713.748 27.6333 713.972 27.764C714.196 27.8853 714.369 28.0627 714.49 28.296C714.621 28.52 714.705 28.7813 714.742 29.08H710.71V30.13ZM723.927 26.56H718.033V30.55C718.033 30.97 717.93 31.2547 717.725 31.404C717.529 31.5533 717.291 31.628 717.011 31.628V33C717.618 33 718.103 32.9207 718.467 32.762C718.84 32.594 719.106 32.3467 719.265 32.02C719.433 31.684 719.517 31.264 719.517 30.76V27.96H722.443V33H723.927V26.56ZM727.343 33L729.471 29.808H727.931L725.719 33H727.343ZM731.515 33V26.56H729.989V33H731.515ZM730.563 29.374H728.673C728.44 29.374 728.244 29.346 728.085 29.29C727.926 29.234 727.805 29.15 727.721 29.038C727.646 28.926 727.609 28.7767 727.609 28.59C727.609 28.4127 727.646 28.268 727.721 28.156C727.805 28.044 727.926 27.96 728.085 27.904C728.244 27.848 728.44 27.82 728.673 27.82H730.563V26.56H728.561C728.122 26.56 727.712 26.6253 727.329 26.756C726.956 26.8867 726.657 27.0967 726.433 27.386C726.209 27.666 726.097 28.044 726.097 28.52C726.097 28.996 726.209 29.3833 726.433 29.682C726.657 29.9713 726.956 30.186 727.329 30.326C727.712 30.4567 728.122 30.522 728.561 30.522H730.563V29.374Z" fill="white"/>
<rect x="505" width="40" height="40" rx="5" fill="white" fill-opacity="0.2"/>
<g clip-path="url(#clip0_217_20823)">
<path d="M532.624 18.1782L531.394 17.9109C531.287 17.5835 531.154 17.2642 530.998 16.9565L531.679 15.8976C531.8 15.7084 531.774 15.46 531.615 15.301L529.699 13.3853C529.54 13.2263 529.292 13.1996 529.102 13.3212L528.043 14.002C527.736 13.8456 527.417 13.7131 527.089 13.6062L526.822 12.3765C526.774 12.1567 526.579 12 526.355 12H523.645C523.421 12 523.226 12.1567 523.178 12.3765L522.911 13.6062C522.583 13.7131 522.264 13.8456 521.957 14.002L520.898 13.3212C520.708 13.1996 520.46 13.2263 520.301 13.3853L518.385 15.301C518.226 15.46 518.2 15.7084 518.321 15.8976L519.002 16.9565C518.846 17.2642 518.713 17.5835 518.606 17.9109L517.376 18.1782C517.157 18.2261 517 18.4205 517 18.6454V21.3546C517 21.5795 517.157 21.7739 517.376 21.8218L518.606 22.0891C518.713 22.4165 518.846 22.7358 519.002 23.0435L518.321 24.1024C518.2 24.2916 518.226 24.54 518.385 24.699L520.301 26.6147C520.46 26.7737 520.708 26.8004 520.898 26.6788L521.957 25.998C522.264 26.1544 522.583 26.2869 522.911 26.3938L523.178 27.6235C523.226 27.8433 523.421 28 523.645 28H526.355C526.579 28 526.774 27.8433 526.822 27.6235L527.089 26.3938C527.417 26.2869 527.736 26.1544 528.043 25.998L529.102 26.6788C529.292 26.8004 529.54 26.7738 529.699 26.6147L531.615 24.699C531.774 24.54 531.8 24.2916 531.679 24.1024L530.998 23.0435C531.154 22.7358 531.287 22.4165 531.394 22.0891L532.624 21.8218C532.843 21.7739 533 21.5795 533 21.3546V18.6454C533 18.4205 532.843 18.2261 532.624 18.1782ZM527.869 20C527.869 21.5817 526.582 22.8685 525 22.8685C523.418 22.8685 522.131 21.5817 522.131 20C522.131 18.4183 523.418 17.1315 525 17.1315C526.582 17.1315 527.869 18.4183 527.869 20Z" fill="white"/>
</g>
<defs>
<clipPath id="clip0_217_20823">
<rect width="16" height="16" fill="white" transform="translate(517 12)"/>
</clipPath>
</defs>
</svg>
