<svg width="62" height="27" viewBox="0 0 62 27" fill="none" xmlns="http://www.w3.org/2000/svg">
<rect width="62" height="27" rx="5" fill="#75D14A"/>
<path d="M18.9754 8.2H17.6454L14.6774 14.724L15.4194 14.78L12.5354 8.2H11.0654L14.2994 15.102L13.0394 18H14.3694L18.9754 8.2ZM19.4144 14.78C19.4144 14.332 19.5077 13.9353 19.6944 13.59C19.8904 13.2353 20.1517 12.96 20.4784 12.764C20.8144 12.568 21.1924 12.47 21.6124 12.47C21.9577 12.47 22.2797 12.526 22.5784 12.638C22.8864 12.7407 23.1524 12.8807 23.3764 13.058C23.6004 13.2353 23.759 13.4313 23.8524 13.646V12.246C23.6284 11.9847 23.3064 11.784 22.8864 11.644C22.4757 11.4947 22.051 11.42 21.6124 11.42C20.987 11.42 20.4224 11.5647 19.9184 11.854C19.4144 12.1433 19.013 12.54 18.7144 13.044C18.425 13.548 18.2804 14.1267 18.2804 14.78C18.2804 15.424 18.425 16.0027 18.7144 16.516C19.013 17.02 19.4144 17.4167 19.9184 17.706C20.4224 17.9953 20.987 18.14 21.6124 18.14C22.051 18.14 22.4757 18.07 22.8864 17.93C23.3064 17.7807 23.6284 17.5753 23.8524 17.314V15.914C23.759 16.1193 23.6004 16.3153 23.3764 16.502C23.1524 16.6793 22.8864 16.824 22.5784 16.936C22.2797 17.0387 21.9577 17.09 21.6124 17.09C21.1924 17.09 20.8144 16.992 20.4784 16.796C20.1517 16.5907 19.8904 16.3153 19.6944 15.97C19.5077 15.6247 19.4144 15.228 19.4144 14.78ZM31.2379 11.56H25.7079V15.76C25.7079 16.2173 25.6052 16.5347 25.3999 16.712C25.2039 16.8893 24.9659 16.978 24.6859 16.978V18C25.1712 18 25.5726 17.9207 25.8899 17.762C26.2072 17.594 26.4406 17.3467 26.5899 17.02C26.7486 16.684 26.8279 16.264 26.8279 15.76V12.61H30.1179V18H31.2379V11.56ZM38.5125 11.56H37.2525L35.2645 16.544L35.7265 16.6L33.6825 11.56H32.3525L34.8165 17.09L33.0525 21.08H34.3125L38.5125 11.56ZM39.6386 11.56V18H40.7586V12.61H43.0686V11.56H39.6386ZM44.6936 16.11C44.6936 15.8487 44.7543 15.6247 44.8756 15.438C44.997 15.2513 45.179 15.1067 45.4216 15.004C45.6736 14.9013 45.9863 14.85 46.3596 14.85C46.7703 14.85 47.139 14.906 47.4656 15.018C47.7923 15.1207 48.1143 15.284 48.4316 15.508V14.85C48.3663 14.766 48.245 14.6587 48.0676 14.528C47.8903 14.388 47.6523 14.2667 47.3536 14.164C47.0643 14.052 46.7143 13.996 46.3036 13.996C45.7436 13.996 45.2583 14.0847 44.8476 14.262C44.437 14.43 44.1196 14.6727 43.8956 14.99C43.6716 15.3073 43.5596 15.6947 43.5596 16.152C43.5596 16.5907 43.6576 16.9593 43.8536 17.258C44.059 17.5473 44.3296 17.7667 44.6656 17.916C45.0016 18.0653 45.3703 18.14 45.7716 18.14C46.2196 18.14 46.6256 18.0653 46.9896 17.916C47.3536 17.7573 47.643 17.5333 47.8576 17.244C48.0816 16.9453 48.1936 16.5907 48.1936 16.18L47.9696 15.48C47.9696 15.8813 47.8856 16.2033 47.7176 16.446C47.559 16.6887 47.335 16.866 47.0456 16.978C46.7563 17.09 46.425 17.146 46.0516 17.146C45.7996 17.146 45.571 17.1087 45.3656 17.034C45.1603 16.95 44.997 16.8333 44.8756 16.684C44.7543 16.5253 44.6936 16.334 44.6936 16.11ZM44.6936 13.072C44.7963 12.9973 44.9363 12.9087 45.1136 12.806C45.3003 12.694 45.5196 12.6007 45.7716 12.526C46.0236 12.442 46.3036 12.4 46.6116 12.4C46.9663 12.4 47.279 12.484 47.5496 12.652C47.8296 12.8107 47.9696 13.0533 47.9696 13.38V18H49.0896V13.38C49.0896 12.96 48.9823 12.6053 48.7676 12.316C48.5623 12.0267 48.273 11.8073 47.8996 11.658C47.5356 11.4993 47.1063 11.42 46.6116 11.42C46.033 11.42 45.5383 11.5087 45.1276 11.686C44.717 11.8633 44.3903 12.0407 44.1476 12.218L44.6936 13.072Z" fill="white"/>
</svg>
