<svg width="18" height="16" viewBox="0 0 18 16" fill="none" xmlns="http://www.w3.org/2000/svg">
<path d="M16.9951 3.51484C16.7344 2.90528 16.3586 2.35291 15.8886 1.88864C15.4182 1.42298 14.8637 1.05293 14.2551 0.798611C13.624 0.533848 12.9471 0.398328 12.2637 0.399916C11.305 0.399916 10.3696 0.665058 9.55675 1.16588C9.36229 1.28569 9.17754 1.41727 9.00252 1.56065C8.8275 1.41727 8.64276 1.28569 8.44829 1.16588C7.63542 0.665058 6.70004 0.399916 5.74132 0.399916C5.05096 0.399916 4.382 0.533469 3.74998 0.798611C3.13935 1.05393 2.58901 1.4212 2.11646 1.88864C1.64584 2.35239 1.2699 2.90489 1.00994 3.51484C0.739634 4.14922 0.601562 4.82287 0.601562 5.51617C0.601562 6.17019 0.7338 6.8517 0.99633 7.54499C1.21608 8.12438 1.53111 8.72537 1.93366 9.33225C2.57151 10.2926 3.44855 11.2943 4.53757 12.3097C6.34222 13.9929 8.12937 15.1555 8.20521 15.2027L8.6661 15.5012C8.87029 15.6328 9.13282 15.6328 9.33701 15.5012L9.79789 15.2027C9.87374 15.1536 11.6589 13.9929 13.4655 12.3097C14.5545 11.2943 15.4316 10.2926 16.0694 9.33225C16.472 8.72537 16.789 8.12438 17.0068 7.54499C17.2693 6.8517 17.4015 6.17019 17.4015 5.51617C17.4035 4.82287 17.2654 4.14922 16.9951 3.51484ZM9.00252 13.9477C9.00252 13.9477 2.07951 9.46776 2.07951 5.51617C2.07951 3.51484 3.71886 1.89257 5.74132 1.89257C7.16287 1.89257 8.39579 2.69388 9.00252 3.86443C9.60926 2.69388 10.8422 1.89257 12.2637 1.89257C14.2862 1.89257 15.9255 3.51484 15.9255 5.51617C15.9255 9.46776 9.00252 13.9477 9.00252 13.9477Z" fill="#6F73EE"/>
</svg>
